<svg version="1.2" xmlns="http://www.w3.org/2000/svg" viewBox="0 0 1000 1000" width="1000" height="1000">
	<title>4991638</title>
	<style>
		.s0 { fill: #f5f5f5 } 
		.s1 { fill: #e0e0e0 } 
		.s2 { fill: #e6e6e6 } 
		.s3 { fill: #ba68c8 } 
		.s4 { opacity: .2;fill: #000000 } 
		.s5 { fill: #ffffff } 
		.s6 { opacity: .5;fill: #000000 } 
		.s7 { fill: #37474f } 
		.s8 { fill: #37484f } 
		.s9 { fill: #455a64 } 
		.s10 { fill: #253239 } 
		.s11 { fill: #ebebeb } 
		.s12 { fill: #fafafa } 
		.s13 { opacity: .6;fill: #ffffff } 
		.s14 { opacity: .3;fill: #ffffff } 
		.s15 { fill: #945959 } 
		.s16 { opacity: .3;fill: #000000 } 
		.s17 { fill: #263238 } 
		.s18 { opacity: .1;fill: #000000 } 
		.s19 { fill: #703838 } 
		.s20 { fill: #ffa8a7 } 
		.s21 { fill: #f28f8f } 
	</style>
	<g id="Pasta 1">
		<g id="Floor">
			<path id="&lt;Path&gt;" class="s0" d="m809.6 530.2c171.1 98.8 171.1 258.8 0 357.6-171 98.7-448.2 98.7-619.2 0-171.1-98.8-171.1-258.8 0-357.6 171-98.7 448.2-98.7 619.2 0z"/>
		</g>
		<g id="Shadows">
			<path id="&lt;Path&gt;" class="s1" d="m853.5 736.8c41.2 23.9 41.2 62.5 0 86.3-41.3 23.9-108.2 23.9-149.5 0-41.3-23.8-41.3-62.4 0-86.3 41.3-23.8 108.2-23.8 149.5 0z"/>
			<path id="&lt;Path&gt;" class="s1" d="m675.9 745.9l-253.6 146.4c-7.1 4.1-19.6 3.6-27.8-1.1l-268.7-155.4c-8.2-4.7-9.1-11.9-2-16l253.6-146.5c7.1-4.1 19.6-3.6 27.8 1.2l268.7 155.3c8.2 4.8 9.1 12 2 16.1z"/>
		</g>
		<g id="Clouds">
			<path id="&lt;Path&gt;" class="s2" d="m753.2 155.5l13.3 7.6v-4.7q0-0.6-0.1-1 0.1-0.5 0.1-1v-0.1c0.5-6.3 5.2-8.7 11-5.3 2.4 1.4 4.7 3.7 6.5 6.3 1.3-8.5 8.3-11.6 16.6-6.7 9.3 5.3 16.9 18.4 16.9 29.1v10.1c0 1.6 0.8 3.2 2.2 4l7.9 4.6c3.4 2 5.6 5.7 5.6 9.7 0 3.6-3.9 5.8-7 4l-72.8-42c-4-2.3-6.4-6.5-6.4-11 0-3.2 3.4-5.2 6.2-3.6z"/>
			<path id="&lt;Path&gt;" class="s2" d="m701.8 88.4l9.2 5.2v-3.2q0-0.4 0-0.7 0-0.4 0-0.7v-0.1c0.3-4.3 3.6-6 7.6-3.7 1.7 1 3.3 2.6 4.6 4.4 0.9-5.9 5.7-8 11.5-4.6 6.4 3.7 11.7 12.7 11.7 20.2v7c0 1.1 0.6 2.2 1.5 2.7l5.5 3.2c2.4 1.4 3.8 4 3.8 6.8 0 2.5-2.7 4-4.8 2.8l-50.5-29.2c-2.7-1.6-4.4-4.5-4.4-7.6 0-2.2 2.4-3.6 4.3-2.5z"/>
		</g>
		<g id="Plants">
			<g id="&lt;Group&gt;">
				<path id="&lt;Path&gt;" class="s3" d="m129.6 675.9l-29.9 17.7c0 0-13.8-2.1-12.7-15 1-12.9 6.6-15.9-0.3-21.6-7-5.7-8.8-6.1-8.4-11.6 0.3-5.6 4-8 5.8-10.2 1.7-2.2 6.7-6.8 3.2-13.5-3.5-6.7-8.1-13.2-1.2-16.3 4.2-1.8 11.1 0.5 15.8 5.4 4.6 4.9 8.4 8.4 12.8 9.5 4.3 1.2 13.5 1.3 13.2 8.8-0.3 7.6-2.3 10.2-0.5 13.5 3.5 6.3 18.2 9.7 2.2 33.3z"/>
				<path id="&lt;Path&gt;" class="s4" d="m129.6 675.9l-29.9 17.7c0 0-13.8-2.1-12.7-15 1-12.9 6.6-15.9-0.3-21.6-7-5.7-8.8-6.1-8.4-11.6 0.3-5.6 4-8 5.8-10.2 1.7-2.2 6.7-6.8 3.2-13.5-3.5-6.7-8.1-13.2-1.2-16.3 4.2-1.8 11.1 0.5 15.8 5.4 4.6 4.9 8.4 8.4 12.8 9.5 4.3 1.2 13.5 1.3 13.2 8.8-0.3 7.6-2.3 10.2-0.5 13.5 3.5 6.3 18.2 9.7 2.2 33.3z"/>
				<path id="&lt;Path&gt;" class="s5" d="m117.4 683.8q0 0 0 0c-0.4 0-0.7-0.4-0.7-0.7 0-0.5 3.2-44.4-27.3-73.3-0.2-0.2-0.3-0.7 0-1 0.3-0.2 0.7-0.3 1 0 31 29.3 27.8 73.9 27.7 74.4 0 0.3-0.3 0.6-0.7 0.6z"/>
				<path id="&lt;Path&gt;" class="s5" d="m112 645.6q0-0.1 0-0.1c-0.4 0-0.7-0.3-0.7-0.7 1-12.5 9.4-18.7 9.8-19 0.3-0.2 0.7-0.1 1 0.2 0.2 0.3 0.1 0.8-0.2 1-0.1 0.1-8.3 6.1-9.1 17.9-0.1 0.4-0.4 0.7-0.8 0.7z"/>
				<path id="&lt;Path&gt;" class="s5" d="m114.3 653.2q-0.4 0-0.6-0.3c0 0-7.6-8.2-24.8-5.8-0.4 0.1-0.8-0.2-0.8-0.6-0.1-0.4 0.2-0.8 0.6-0.8 18-2.5 25.8 5.9 26.1 6.3 0.3 0.3 0.2 0.7-0.1 1q-0.2 0.2-0.4 0.2z"/>
			</g>
			<g id="&lt;Group&gt;">
				<path id="&lt;Path&gt;" class="s3" d="m143.7 667.7l-18.2 10.5c0 0 9.2-29.2 4.1-58.5-1.9-11.1-5.9-16.6-7.4-19.6-1.4-3-12.3-21.3-2.7-29.7 9.6-8.5 32.2 8.3 31.2 53.6-0.5 23.2-7 43.7-7 43.7z"/>
				<path id="&lt;Path&gt;" class="s6" d="m143.7 667.7l-18.2 10.5c0 0 9.2-29.2 4.1-58.5-1.9-11.1-5.9-16.6-7.4-19.6-1.4-3-12.3-21.3-2.7-29.7 9.6-8.5 32.2 8.3 31.2 53.6-0.5 23.2-7 43.7-7 43.7z"/>
				<path id="&lt;Path&gt;" class="s5" d="m135.2 673.3q-0.1 0-0.2 0c-0.4-0.2-0.6-0.6-0.4-0.9 0-0.2 6.8-19 6.4-49.3-0.3-30-16-46-16.2-46.2-0.2-0.2-0.3-0.7 0-1 0.3-0.2 0.8-0.2 1 0 0.2 0.2 16.3 16.5 16.7 47.2 0.3 30.5-6.5 49.6-6.6 49.8-0.1 0.2-0.4 0.4-0.7 0.4z"/>
			</g>
		</g>
		<g id="Device">
			<g id="&lt;Group&gt;">
				<path id="&lt;Compound Path&gt;" fill-rule="evenodd" class="s7" d="m457.3 75.4c0.3 1.1 0.5 2.3 0.5 3.6 0 0 0 504.2 0 504.2 0 13.1-6.9 25.2-18.3 31.8l-233.1 134.6c-2 1.2-4.1 1.7-6.2 1.6h-4.6c-3.7 0-7.4-1-10.6-2.9l-9.3-5.5c-3.5-2.1-5.7-5.9-5.7-10v-508.4q0-2 0.3-4 0-0.2 0-0.5 0.3-1.9 0.7-3.7 0-0.3 0.1-0.6 0.5-1.8 1.1-3.6 0.1-0.2 0.2-0.4c2.9-7.9 8.5-14.6 16-18.9l233.1-134.7c2-1.1 4.1-1.6 6.2-1.6 6.7 0 13.3 1.8 19.2 5.3l0.8 0.5c4.9 2.9 8.3 7.7 9.6 13.2q0 0 0 0zm-3.6-5.4q0 0 0.1 0-0.1 0-0.1 0zm-0.2-0.2q0.1 0.1 0.2 0.2-0.1-0.1-0.2-0.2zm-3.5-2q0.2 0 0.3 0.1-0.1-0.1-0.3-0.1zm-0.2-0.1q0.1 0 0.2 0.1-0.1-0.1-0.2-0.1zm-3.3-0.7q0.3 0 0.6 0.1-0.3-0.1-0.6-0.1zm-0.2 0q0.1 0 0.2 0-0.1 0-0.2 0zm-1.5 0q0.4 0 0.8 0-0.4 0-0.8 0zm0 0.1q0 0 0-0.1 0 0.1 0 0.1zm-3.5 0.8q-0.8 0.3-1.5 0.7 0.7-0.4 1.5-0.7zm-247.8 681.2q0.2 0.1 0.4 0.2-0.2-0.1-0.4-0.2zm-2.9-2.9q-0.1-0.2-0.3-0.4 0.2 0.2 0.3 0.4zm264.1-675.3q-0.1-0.1-0.2-0.1 0.1 0 0.2 0.1zm-2-1.7q-0.1-0.1-0.3-0.2 0.2 0.1 0.3 0.2zm-1.1-0.7q-0.2-0.1-0.5-0.2 0.3 0.1 0.5 0.2zm-3.1-1.2q-0.4-0.1-0.8-0.1 0.4 0 0.8 0.1zm-4.3-0.2q-0.5 0.1-0.9 0.2 0.4-0.1 0.9-0.2zm-1.5 0.3q-0.5 0.2-1 0.3 0.5-0.1 1-0.3zm-244.6 683.6q-0.2 0-0.4-0.1 0.2 0.1 0.4 0.1zm-9.5-9.5q0 0.2 0.1 0.5-0.1-0.3-0.1-0.5zm0.7 2.5q0 0 0 0 0 0 0 0zm2.6 3.8q0 0 0.1 0-0.1 0-0.1 0z"/>
				<g id="&lt;Group&gt;">
					<g id="&lt;Group&gt;">
						<path id="&lt;Path&gt;" class="s8" d="m457.8 80.1q0 0 0 0z"/>
						<path id="&lt;Path&gt;" class="s8" d="m188.3 235c0-13.1 7-25.2 18.4-31.8l233.1-134.6c6.9-4 15.3-0.2 17.5 6.8-1.3-5.5-4.7-10.3-9.6-13.2l-0.8-0.5c-5.9-3.5-12.5-5.3-19.2-5.3-2.1 0-4.2 0.5-6.2 1.6l-233.1 134.7c-11.4 6.5-18.4 18.6-18.4 31.7v504.2c0 9.3 10 15.1 18 10.4l0.3-0.1z"/>
					</g>
					<path id="&lt;Path&gt;" class="s9" d="m439.5 615l-233.1 134.6c-8.1 4.6-18.1-1.1-18.1-10.4v-504.2c0-13.1 7-25.2 18.4-31.8l233.1-134.6c8-4.6 18 1.2 18 10.4v504.2c0 13.1-6.9 25.2-18.3 31.8z"/>
					<path id="&lt;Path&gt;" class="s10" d="m188.3 739.2v-504.2c0-5.6 1.3-11 3.7-15.9l-18.1-11.1c-2.5 5-3.9 10.6-3.9 16.4v503.2 1 4.2c0 4.1 2.2 7.9 5.7 10l9.3 5.5c3.2 1.9 6.9 2.9 10.6 2.9h4.6c-6.2-0.1-11.9-5-11.9-12z"/>
					<g id="&lt;Group&gt;">
						<path id="&lt;Path&gt;" class="s8" d="m431.5 117.1v423.8c0 11.6-6.2 22.2-16.2 28l-205.9 118.9c-1.6 1-3.4 1.4-5.1 1.4 2.4 5.5 9.3 8.3 15 5l205.9-118.9c10.1-5.8 16.2-16.5 16.2-28v-419.6c0-6-4.7-10.3-9.9-10.6z"/>
						<g id="&lt;Group&gt;">
							<path id="&lt;Path&gt;" class="s3" d="m204.3 689.2c1.7 0 3.5-0.4 5.1-1.4l205.9-118.9c10-5.8 16.2-16.4 16.2-28v-423.8c1 0-3.1-0.3-6 1.4l-205.9 118.8c-10 5.8-16.2 16.5-16.2 28.1v419.6c0 1.6 0.4 3 0.9 4.3q0-0.1 0-0.1z"/>
						</g>
						<g id="&lt;Group&gt;" style="opacity: .5">
							<path id="&lt;Path&gt;" class="s5" d="m204.3 689.2c1.7 0 3.5-0.4 5.1-1.4l205.9-118.9c10-5.8 16.2-16.4 16.2-28v-423.8c1 0-3.1-0.3-6 1.4l-205.9 118.8c-10 5.8-16.2 16.5-16.2 28.1v419.6c0 1.6 0.4 3 0.9 4.3q0-0.1 0-0.1z"/>
						</g>
					</g>
					<g id="&lt;Group&gt;">
						<path id="&lt;Path&gt;" class="s10" d="m290.5 175.2c0 2.4-1.7 5.3-3.7 6.5-2.1 1.1-3.8 0.2-3.8-2.2 0-2.3 1.7-5.2 3.8-6.4 2-1.2 3.7-0.2 3.7 2.1z"/>
						<path id="&lt;Path&gt;" class="s10" d="m304.3 167.3c0 2.3-1.7 5.2-3.8 6.4-2 1.2-3.7 0.2-3.7-2.1 0-2.4 1.7-5.3 3.7-6.5 2.1-1.2 3.8-0.2 3.8 2.2z"/>
						<path id="&lt;Path&gt;" class="s10" d="m359.9 139.4l-44.8 25.9c-1.8 1-3.2-0.1-3.2-2.4 0-2.4 1.4-5.1 3.2-6.2l44.8-25.9c1.8-1 3.2 0.1 3.2 2.5 0 2.3-1.4 5.1-3.2 6.1z"/>
					</g>
					<path id="&lt;Compound Path&gt;" fill-rule="evenodd" class="s10" d="m358.6 638.1c0 7.7-4.7 16.5-10.4 19.8l-21.4 12.4c-1.5 0.8-2.9 1.2-4.1 1.2-3.7 0-6.3-3.3-6.3-9 0-7.6 4.7-16.5 10.4-19.8l21.4-12.4c1.5-0.8 2.9-1.2 4.1-1.2 3.7 0 6.3 3.4 6.3 9zm-9.5-6.2l-21.4 12.4c-5.1 2.9-9.4 11.3-9.4 18.2 0 4.4 1.7 7.2 4.4 7.2q1.4 0 3.2-1l21.4-12.4c5.1-2.9 9.4-11.3 9.4-18.2 0-4.4-1.7-7.2-4.4-7.2q-1.4 0-3.2 1z"/>
				</g>
			</g>
		</g>
		<g id="Screens">
			<g id="&lt;Group&gt;">
				<g id="&lt;Group&gt;">
					<g id="&lt;Group&gt;">
						<path id="&lt;Path&gt;" class="s11" d="m490.1 130.5l-10.8-6.5c-3.4-2.2-8-2.7-12-0.3l-77.7 45.5v3.7c0 11.2-9.1 25.6-20.4 32.1l-24.5 14.1c-8.3 4.9-15.5 3.9-18.6-1.5l7.9-4.7-9.6-5.4-79.2 46.4c-9.7 5.6-15.6 16-15.6 27.2v482.8c0 4.4 2.3 7.9 5.6 9.8l0.1 0.1q0.1 0 0.2 0.1l10.6 5.9v-5.7q0.3-0.2 0.7-0.4c57.8-34.8 174.5-104.5 219.4-131.3 11.3-6.7 18.2-18.9 18.2-32v-474.2z"/>
						<path id="&lt;Compound Path&gt;" fill-rule="evenodd" class="s11" d="m245.6 780.7l-10.9-6.2v0.1c-3.8-2.3-6.1-6.3-6.1-10.7v-482.8c0-11.5 6.2-22.3 16.1-28.1l79.2-46.4h1l9.6 5.5v1.7l-7 4.1q1.6 2.3 4.4 3c3.4 0.9 7.8 0 12.3-2.6l24.6-14.2c10.9-6.3 19.8-20.3 19.8-31.2v-3.7l0.5-0.8 77.7-45.6c4-2.3 9-2.2 13 0.4l10.8 6.4 0.2 1.6-5.4 5.4v473.8c0 13.4-7.2 26-18.7 32.9-25.6 15.3-156.9 93.6-219.4 131.2q-0.1 0.1-0.2 0.2v5.1zm-9.9-7.8l9.4 5.2v-4l0.5-0.9 0.2-0.1q0.3-0.1 0.5-0.3c62.4-37.6 193.7-115.9 219.4-131.2 10.9-6.5 17.7-18.4 17.7-31.1v-474.3l0.3-0.7 4.8-4.8-9.7-5.8c-3.4-2.2-7.6-2.3-11-0.3l-77.2 45.2v3.1c0 11.5-9.4 26.3-20.9 33l-24.5 14.1c-5 2.9-9.9 3.9-13.9 2.9-2.6-0.7-4.7-2.4-6.1-4.8l0.3-1.3 6.5-3.8-7.6-4.4-78.7 46.2c-9.3 5.4-15.1 15.5-15.1 26.3v482.9c0 3.7 1.9 7 5.1 8.9z"/>
					</g>
					<g id="&lt;Group&gt;">
						<g id="&lt;Group&gt;">
							<path id="&lt;Path&gt;" class="s12" d="m494 139v476.9c0 13.1-6.9 25.3-18.1 32-44.9 26.8-161.7 96.4-219.5 131.3-7.5 4.5-17.2-1-17.2-9.8v-482.9c0-11.2 6-21.5 15.6-27.1l79.2-46.5v3.1c0 11.2 9.1 15.1 20.4 8.6l24.5-14.1c11.2-6.5 20.3-20.9 20.3-32.1v-3.7l77.7-45.5c7.6-4.5 17.1 1 17.1 9.8z"/>
							<path id="&lt;Path&gt;" class="s11" d="m493 139q0 10.3 0 20.7 0 27.3 0 54.7 0 38.4 0 76.8 0 43.9 0 87.9 0 44 0 88 0 38.2 0 76.4 0 26.6 0 53.2c0 8.1 0.8 16.8-0.4 24.8-1.8 11.7-9 20.6-19 26.6q-8.7 5.2-17.5 10.4-23.4 14-46.9 28-54.4 32.5-108.8 65.1-11.9 7.1-23.8 14.3c-7 4.2-14 9.1-21.4 12.8-7.1 3.5-14.7-1.9-15-9.5 0-0.7 0-1.5 0-2.3q0-16.5 0-33 0-31.4 0-62.8 0-40.9 0-81.7 0-44.5 0-89 0-42.8 0-85.6 0-35.7 0-71.4 0-22.9 0-45.8 0-5 0-10c0.1-11.4 5.4-21.6 15.4-27.5 19.9-12 40.1-23.6 60.2-35.3q9.4-5.5 18.7-11-0.7-0.4-1.5-0.9c0 3.8-0.1 7.7 2 11 2.2 3.5 6.1 5.1 10.1 4.8 6.6-0.4 12.6-4.9 18.2-8.1 5.4-3.1 10.8-6.1 16.1-9.3 9.6-5.7 17.5-16 20.1-27q0.7-3 0.7-6.1c0-0.7 0.2-1.8 0-2.5-0.2-1.1 0.4-0.8-0.4-0.2 0.7-0.6 1.8-1 2.6-1.5q7.1-4.1 14.2-8.3 20.9-12.2 41.8-24.5 8.3-4.8 16.5-9.7c0.8-0.5 1.7-1 2.5-1.4 7.1-3.8 15.3 0.8 15.6 8.9 0.1 1.3 2.1 1.3 2 0-0.3-9.5-10.2-15.2-18.6-10.7-2.6 1.4-5.1 3-7.7 4.5q-19.7 11.6-39.5 23.2-9.6 5.6-19.2 11.2c-3.5 2.1-7.3 3.9-10.6 6.3-1.2 0.8-1.2 1.2-1.2 2.7 0 5.6-1.1 10.8-3.7 15.8-4.4 8.6-11.1 14.7-19.3 19.5-6.9 3.9-13.7 7.9-20.6 11.8-4.1 2.4-9.6 4.8-14.4 2.7-5.1-2.4-5.2-8.2-5.2-13.1 0-0.7-0.8-1.2-1.5-0.8q-29 17-58 34c-7.1 4.1-14.2 8.2-21.2 12.4-10.3 6.2-16 17-16.1 29 0 9.6 0 19.2 0 28.8q0 30.3 0 60.7 0 40.4 0 80.8 0 45 0 90 0 43.7 0 87.5 0 36.7 0 73.5 0 24 0 48 0 5.5 0 11 0 0.8 0 1.6c0.3 7.3 6.5 13.2 14 12.3 4-0.5 7.6-3.4 11-5.5q5.3-3.1 10.5-6.3 12.1-7.2 24.1-14.4 27.2-16.3 54.4-32.6 51.6-30.8 103.2-61.6c14.1-8.4 31-15.5 37.1-31.9 2.1-5.5 2.5-11.2 2.5-16.9q0-18 0-36 0-32.8 0-65.6 0-42 0-84.1 0-45.2 0-90.4 0-42.6 0-85.2 0-33.9 0-67.8 0-19.6 0-39.3 0-2.5 0-5.1c0-1.3-2-1.3-2 0z"/>
						</g>
					</g>
				</g>
				<g id="&lt;Group&gt;">
					<path id="&lt;Path&gt;" class="s3" d="m298.1 294.8c0 8.9-6.2 19.8-14 24.3-7.7 4.4-14 0.8-14-8.1 0-9 6.3-19.8 14-24.3 7.8-4.5 14-0.9 14 8.1z"/>
					<g id="&lt;Group&gt;">
						<path id="&lt;Path&gt;" class="s3" d="m311.5 283.1c-0.7 0-1.3-0.3-1.7-1-0.6-0.9-0.2-2.2 0.7-2.7l64.6-37.3c0.9-0.5 2.2-0.2 2.7 0.7 0.6 1 0.2 2.2-0.7 2.8l-64.6 37.3q-0.5 0.2-1 0.2z"/>
						<path id="&lt;Path&gt;" class="s3" d="m311.5 295.3c-0.7 0-1.3-0.3-1.7-1-0.6-0.9-0.2-2.1 0.7-2.7l39.6-22.9c1-0.5 2.2-0.2 2.8 0.8 0.5 0.9 0.2 2.2-0.8 2.7l-39.6 22.9q-0.5 0.2-1 0.2z"/>
					</g>
				</g>
				<g id="&lt;Group&gt;">
					<g id="&lt;Group&gt;">
						<g id="&lt;Group&gt;">
							<path id="&lt;Path&gt;" class="s1" d="m465.2 388.7l-188.5 108.8c-3.6 2.2-6.6-0.1-6.6-5v-138.9c0-4.9 3-10.5 6.6-12.7l188.5-108.8c3.7-2.1 6.7 0.1 6.7 5v139c0 4.8-3 10.5-6.7 12.6z"/>
						</g>
					</g>
					<g id="&lt;Group&gt;">
						<path id="&lt;Path&gt;" class="s5" d="m289.5 357.1c-0.7 0-1.4-0.4-1.7-1-0.6-1-0.3-2.2 0.7-2.8l162.9-94c1-0.6 2.2-0.3 2.8 0.7 0.5 1 0.2 2.2-0.8 2.7l-162.9 94.1q-0.5 0.3-1 0.3z"/>
						<path id="&lt;Path&gt;" class="s5" d="m289.5 376c-0.7 0-1.4-0.4-1.7-1-0.6-1-0.3-2.2 0.7-2.7l162.9-94.1c1-0.6 2.2-0.2 2.8 0.7 0.5 1 0.2 2.2-0.8 2.8l-162.9 94q-0.5 0.3-1 0.3z"/>
						<path id="&lt;Path&gt;" class="s5" d="m289.5 394.9c-0.7 0-1.4-0.3-1.7-1-0.6-0.9-0.3-2.1 0.7-2.7l162.9-94.1c1-0.5 2.2-0.2 2.8 0.8 0.5 0.9 0.2 2.1-0.8 2.7l-162.9 94.1q-0.5 0.2-1 0.2z"/>
						<path id="&lt;Path&gt;" class="s5" d="m289.5 413.9c-0.7 0-1.4-0.4-1.7-1-0.6-1-0.3-2.2 0.7-2.8l162.9-94c1-0.6 2.2-0.3 2.8 0.7 0.5 1 0.2 2.2-0.8 2.7l-162.9 94.1q-0.5 0.3-1 0.3z"/>
						<path id="&lt;Path&gt;" class="s5" d="m289.5 432.8c-0.7 0-1.4-0.4-1.7-1-0.6-1-0.3-2.2 0.7-2.7l162.9-94.1c1-0.6 2.2-0.2 2.8 0.7 0.5 1 0.2 2.2-0.8 2.8l-162.9 94q-0.5 0.3-1 0.3z"/>
						<path id="&lt;Path&gt;" class="s5" d="m289.5 451.7c-0.7 0-1.4-0.3-1.7-1-0.6-0.9-0.3-2.2 0.7-2.7l162.9-94.1c1-0.5 2.2-0.2 2.8 0.8 0.5 0.9 0.2 2.1-0.8 2.7l-162.9 94.1q-0.5 0.2-1 0.2z"/>
						<path id="&lt;Path&gt;" class="s5" d="m289.5 470.7c-0.7 0-1.4-0.4-1.7-1-0.6-1-0.3-2.2 0.7-2.8l162.9-94c1-0.6 2.2-0.3 2.8 0.7 0.5 0.9 0.2 2.2-0.8 2.7l-162.9 94.1q-0.5 0.3-1 0.3z"/>
					</g>
				</g>
				<g id="&lt;Group&gt;">
					<path id="&lt;Path&gt;" class="s3" d="m298.1 523.9c0 9-6.2 19.8-14 24.3-7.7 4.5-14 0.9-14-8.1 0-8.9 6.3-19.8 14-24.3 7.8-4.4 14-0.8 14 8.1z"/>
					<path id="&lt;Path&gt;" class="s13" d="m298.1 294.8c0 8.9-6.2 19.8-14 24.3-7.7 4.4-14 0.8-14-8.1 0-9 6.3-19.8 14-24.3 7.8-4.5 14-0.9 14 8.1z"/>
					<path id="&lt;Path&gt;" class="s13" d="m298.1 523.9c0 9-6.2 19.8-14 24.3-7.7 4.5-14 0.9-14-8.1 0-8.9 6.3-19.8 14-24.3 7.8-4.4 14-0.8 14 8.1z"/>
					<g id="&lt;Group&gt;">
						<path id="&lt;Path&gt;" class="s3" d="m311.5 512.3c-0.7 0-1.3-0.4-1.7-1-0.6-1-0.2-2.2 0.7-2.8l64.6-37.3c0.9-0.5 2.2-0.2 2.7 0.8 0.6 0.9 0.2 2.2-0.7 2.7l-64.6 37.3q-0.5 0.3-1 0.3z"/>
						<path id="&lt;Path&gt;" class="s3" d="m311.5 524.5c-0.7 0-1.3-0.4-1.7-1-0.6-1-0.2-2.2 0.7-2.8l39.6-22.8c1-0.6 2.2-0.2 2.8 0.7 0.5 1 0.2 2.2-0.8 2.7l-39.6 22.9q-0.5 0.3-1 0.3z"/>
					</g>
				</g>
				<g id="&lt;Group&gt;">
					<g id="&lt;Group&gt;">
						<g id="&lt;Group&gt;">
							<path id="&lt;Path&gt;" class="s1" d="m465.2 617.9l-188.5 108.8c-3.6 2.1-6.6-0.1-6.6-5v-139c0-4.8 3-10.5 6.6-12.6l188.5-108.9c3.7-2.1 6.7 0.2 6.7 5.1v138.9c0 4.9-3 10.5-6.7 12.7z"/>
						</g>
					</g>
					<g id="&lt;Group&gt;">
						<path id="&lt;Path&gt;" class="s5" d="m289.5 586.2c-0.7 0-1.4-0.3-1.7-1-0.6-0.9-0.3-2.2 0.7-2.7l162.9-94.1c1-0.5 2.2-0.2 2.8 0.7 0.5 1 0.2 2.2-0.8 2.8l-162.9 94q-0.5 0.3-1 0.3z"/>
						<path id="&lt;Path&gt;" class="s5" d="m289.5 605.1c-0.7 0-1.4-0.3-1.7-1-0.6-0.9-0.3-2.1 0.7-2.7l162.9-94.1c1-0.5 2.2-0.2 2.8 0.8 0.5 0.9 0.2 2.2-0.8 2.7l-162.9 94.1q-0.5 0.2-1 0.2z"/>
						<path id="&lt;Path&gt;" class="s5" d="m289.5 624.1c-0.7 0-1.4-0.4-1.7-1-0.6-1-0.3-2.2 0.7-2.8l162.9-94c1-0.6 2.2-0.3 2.8 0.7 0.5 1 0.2 2.2-0.8 2.7l-162.9 94.1q-0.5 0.3-1 0.3z"/>
						<path id="&lt;Path&gt;" class="s5" d="m289.5 643c-0.7 0-1.4-0.4-1.7-1-0.6-1-0.3-2.2 0.7-2.7l162.9-94.1c1-0.5 2.2-0.2 2.8 0.7 0.5 1 0.2 2.2-0.8 2.8l-162.9 94q-0.5 0.3-1 0.3z"/>
						<path id="&lt;Path&gt;" class="s5" d="m289.5 661.9c-0.7 0-1.4-0.3-1.7-1-0.6-0.9-0.3-2.1 0.7-2.7l162.9-94.1c1-0.5 2.2-0.2 2.8 0.8 0.5 0.9 0.2 2.1-0.8 2.7l-162.9 94.1q-0.5 0.2-1 0.2z"/>
						<path id="&lt;Path&gt;" class="s5" d="m289.5 680.9c-0.7 0-1.4-0.4-1.7-1-0.6-1-0.3-2.2 0.7-2.8l162.9-94c1-0.6 2.2-0.3 2.8 0.7 0.5 1 0.2 2.2-0.8 2.7l-162.9 94.1q-0.5 0.3-1 0.3z"/>
						<path id="&lt;Path&gt;" class="s5" d="m289.5 699.8c-0.7 0-1.4-0.4-1.7-1-0.6-1-0.3-2.2 0.7-2.7l162.9-94.1c1-0.6 2.2-0.2 2.8 0.7 0.5 1 0.2 2.2-0.8 2.8l-162.9 94q-0.5 0.3-1 0.3z"/>
					</g>
				</g>
			</g>
			<g id="&lt;Group&gt;">
				<g id="&lt;Group&gt;">
					<g id="&lt;Group&gt;">
						<path id="&lt;Path&gt;" class="s11" d="m569.4 175.6l-10-5.7q-0.9-0.6-1.9-1.1c-3.1-1.4-7-1.5-10.4 0.5l-77.7 45.6v3.6c0 11.3-9.1 25.6-20.3 32.1l-24.5 14.2c-8.4 4.8-15.6 3.9-18.7-1.6l7.9-4.6-9.6-5.5-79.2 46.4c-9.7 5.7-15.6 16-15.6 27.2v482.9c0 4.3 2.4 7.8 5.6 9.7v0.1h0.1q0.1 0.1 0.2 0.1l10.6 6v-5.8q0.4-0.2 0.7-0.4c57.8-34.8 174.6-104.5 219.4-131.3 11.3-6.7 18.2-18.8 18.2-31.9v-475.3z"/>
						<path id="&lt;Compound Path&gt;" fill-rule="evenodd" class="s11" d="m325.4 826.3l-10.8-6v-0.2l-0.1 0.1c-3.8-2.2-6.1-6.2-6.1-10.6v-482.9c0-11.5 6.2-22.2 16.1-28l79.2-46.5h1l9.6 5.5v1.7l-7 4.2q1.6 2.2 4.4 3c3.4 0.9 7.8-0.1 12.4-2.7l24.5-14.1c10.9-6.4 19.8-20.4 19.8-31.3v-3.6l0.5-0.9 77.7-45.5c3.5-2.1 7.6-2.3 11.3-0.6q1.1 0.5 2.1 1.2l9.9 5.6 0.2 1.6-4.9 4.9v474.9c0 13.4-7.1 25.9-18.6 32.8-15.7 9.3-154.6 92.2-219.5 131.3q-0.1 0-0.2 0.1v5.2zm-9.9-7.9l9.4 5.3v-4.1l0.5-0.9 0.3-0.1q0.2-0.1 0.4-0.2c64.8-39.1 203.8-122 219.4-131.3 10.9-6.5 17.7-18.4 17.7-31.1v-475.3l0.3-0.7 4.2-4.2-8.8-5.1c-0.6-0.4-1.2-0.8-1.8-1-3.1-1.5-6.6-1.3-9.5 0.4l-77.2 45.3v3c0 11.6-9.3 26.4-20.8 33l-24.5 14.1c-5.1 3-10 4-13.9 2.9-2.7-0.7-4.8-2.3-6.2-4.7l0.4-1.4 6.4-3.8-7.6-4.3-78.7 46.1c-9.3 5.5-15.1 15.5-15.1 26.3v482.9c0 3.7 1.9 7 5.1 8.9z"/>
					</g>
					<g id="&lt;Group&gt;">
						<g id="&lt;Group&gt;">
							<path id="&lt;Path&gt;" class="s12" d="m573.8 184.6v477c0 13.1-6.9 25.2-18.1 31.9-44.9 26.8-161.6 96.5-219.4 131.3-7.6 4.5-17.2-0.9-17.2-9.8v-482.8c0-11.2 5.9-21.5 15.5-27.2l79.2-46.4v3c0 11.3 9.2 15.1 20.4 8.6l24.5-14.1c11.2-6.5 20.3-20.9 20.3-32.1v-3.6l77.7-45.6c7.6-4.4 17.1 1.1 17.1 9.8z"/>
							<path id="&lt;Path&gt;" class="s11" d="m572.8 184.6q0 10.4 0 20.8 0 27.3 0 54.6 0 38.4 0 76.8 0 44 0 87.9 0 44 0 88 0 38.2 0 76.4 0 26.6 0 53.3c0 8 0.9 16.7-0.4 24.7-1.8 11.7-9 20.7-19 26.6q-8.7 5.2-17.4 10.4-23.5 14-46.9 28-54.5 32.5-108.8 65.1-12 7.1-23.9 14.3c-7 4.2-14 9.2-21.4 12.8-7.1 3.6-14.7-1.9-14.9-9.4-0.1-0.8 0-1.6 0-2.4q0-16.4 0-32.9 0-31.5 0-62.9 0-40.8 0-81.7 0-44.5 0-88.9 0-42.8 0-85.6 0-35.8 0-71.5 0-22.9 0-45.8 0-4.9 0-9.9c0-11.5 5.4-21.6 15.3-27.6 19.9-11.9 40.1-23.5 60.2-35.3q9.4-5.5 18.7-11-0.7-0.4-1.5-0.8c0 3.8 0 7.6 2 11 2.2 3.5 6.1 5 10.1 4.8 6.6-0.4 12.7-5 18.2-8.2 5.4-3 10.8-6.1 16.1-9.2 9.7-5.8 17.6-16 20.1-27q0.7-3 0.7-6.1c0.1-0.8 0.2-1.8 0-2.6-0.2-1 0.4-0.8-0.4-0.1 0.7-0.6 1.8-1 2.6-1.5q7.1-4.2 14.2-8.3 20.9-12.3 41.8-24.6 8.3-4.8 16.5-9.6c0.8-0.5 1.7-1.1 2.5-1.5 7.1-3.8 15.3 0.9 15.6 8.9 0.1 1.3 2.1 1.3 2 0-0.3-9.5-10.2-15.2-18.6-10.6-2.6 1.4-5.1 3-7.7 4.5q-19.7 11.5-39.5 23.1-9.6 5.6-19.1 11.3c-3.6 2-7.4 3.9-10.7 6.2-1.1 0.8-1.2 1.3-1.2 2.8 0 5.6-1.1 10.7-3.7 15.7-4.4 8.6-11.1 14.7-19.3 19.5-6.9 3.9-13.7 7.9-20.5 11.8-4.2 2.4-9.7 4.9-14.5 2.7-5.1-2.3-5.2-8.2-5.2-13 0-0.8-0.8-1.3-1.5-0.9q-29 17-58 34c-7 4.1-14.2 8.2-21.2 12.4-10.3 6.3-16 17.1-16 29-0.1 9.6 0 19.2 0 28.8q0 30.4 0 60.7 0 40.4 0 80.8 0 45 0 90 0 43.8 0 87.5 0 36.8 0 73.6 0 24 0 47.9 0 5.5 0 11-0.1 0.8 0 1.6c0.2 7.4 6.4 13.3 13.9 12.3 4.1-0.5 7.6-3.4 11-5.4q5.3-3.2 10.5-6.3 12.1-7.3 24.1-14.5 27.2-16.3 54.4-32.5 51.6-30.9 103.2-61.7c14.1-8.4 31-15.5 37.2-31.9 2.1-5.5 2.4-11.1 2.4-16.9q0-18 0-35.9 0-32.9 0-65.7 0-42 0-84 0-45.3 0-90.5 0-42.6 0-85.1 0-33.9 0-67.9 0-19.6 0-39.2 0-2.6 0-5.2c0-1.3-2-1.3-2 0z"/>
						</g>
					</g>
				</g>
				<g id="&lt;Group&gt;">
					<path id="&lt;Path&gt;" class="s3" d="m427.8 732.9l-72.7 42c-5.2 3-9.5-0.2-9.5-7.3 0-7 4.3-15.2 9.5-18.3l72.7-41.9c5.3-3.1 9.6 0.2 9.6 7.2 0 7.1-4.3 15.3-9.6 18.3z"/>
					<path id="&lt;Path&gt;" class="s3" d="m537.7 666.2l-72.6 41.9c-5.3 3.1-9.6-0.2-9.6-7.2 0-7.1 4.3-15.3 9.6-18.3l72.6-42c5.3-3 9.6 0.2 9.6 7.3 0 7-4.3 15.2-9.6 18.3z"/>
					<path id="&lt;Path&gt;" class="s13" d="m427.8 732.9l-72.7 42c-5.2 3-9.5-0.2-9.5-7.3 0-7 4.3-15.2 9.5-18.3l72.7-41.9c5.3-3.1 9.6 0.2 9.6 7.2 0 7.1-4.3 15.3-9.6 18.3z"/>
					<path id="&lt;Path&gt;" class="s13" d="m537.7 666.2l-72.6 41.9c-5.3 3.1-9.6-0.2-9.6-7.2 0-7.1 4.3-15.3 9.6-18.3l72.6-42c5.3-3 9.6 0.2 9.6 7.3 0 7-4.3 15.2-9.6 18.3z"/>
					<g id="&lt;Group&gt;">
						<g id="&lt;Group&gt;">
							<g id="&lt;Group&gt;">
								<path id="&lt;Path&gt;" class="s3" d="m540.7 412.1l-188.5 108.8c-3.7 2.2-6.6-0.1-6.6-5v-159.8c0-4.9 2.9-10.5 6.6-12.6l188.5-108.9c3.7-2.1 6.6 0.1 6.6 5v159.9c0 4.8-2.9 10.5-6.6 12.6z"/>
								<path id="&lt;Path&gt;" class="s13" d="m540.7 412.1l-188.5 108.8c-3.7 2.2-6.6-0.1-6.6-5v-159.8c0-4.9 2.9-10.5 6.6-12.6l188.5-108.9c3.7-2.1 6.6 0.1 6.6 5v159.9c0 4.8-2.9 10.5-6.6 12.6z"/>
							</g>
						</g>
					</g>
					<g id="&lt;Group&gt;">
						<g id="&lt;Group&gt;">
							<g id="&lt;Group&gt;">
								<path id="&lt;Path&gt;" class="s3" d="m540.7 618.4l-188.5 108.9c-3.7 2.1-6.6-0.2-6.6-5v-159.9c0-4.8 2.9-10.5 6.6-12.6l188.5-108.9c3.7-2.1 6.6 0.2 6.6 5.1v159.8c0 4.9-2.9 10.5-6.6 12.6z"/>
								<path id="&lt;Path&gt;" class="s13" d="m540.7 618.4l-188.5 108.9c-3.7 2.1-6.6-0.2-6.6-5v-159.9c0-4.8 2.9-10.5 6.6-12.6l188.5-108.9c3.7-2.1 6.6 0.2 6.6 5.1v159.8c0 4.9-2.9 10.5-6.6 12.6z"/>
							</g>
						</g>
					</g>
				</g>
			</g>
			<g id="&lt;Group&gt;">
				<g id="&lt;Group&gt;">
					<g id="&lt;Group&gt;">
						<path id="&lt;Path&gt;" class="s11" d="m649.3 222l-11-6.4c-3.4-2.2-7.9-2.6-11.8-0.3l-77.7 45.6v3.6c0 11.3-9.1 25.6-20.3 32.1l-24.5 14.2c-8.4 4.8-15.6 3.9-18.7-1.5l7.9-4.7-9.6-5.5-79.2 46.4c-9.7 5.7-15.6 16-15.6 27.2v482.9c0 4.3 2.4 7.8 5.6 9.8h0.1q0.1 0.1 0.2 0.1l10.6 6v-5.8q0.4-0.2 0.7-0.4c57.8-34.8 174.6-104.5 219.4-131.3 11.3-6.7 18.2-18.8 18.2-31.9v-474.4z"/>
						<path id="&lt;Compound Path&gt;" fill-rule="evenodd" class="s11" d="m404.8 872.3l-10.8-6v-0.2l-0.1 0.1c-3.8-2.2-6.1-6.2-6.1-10.6v-482.9c0-11.5 6.2-22.2 16.1-28l79.2-46.5h1l9.6 5.5 0.1 1.7-7.1 4.2q1.6 2.2 4.4 3c3.4 0.9 7.8-0.1 12.4-2.7l24.5-14.1c10.9-6.4 19.8-20.4 19.8-31.3v-3.6l0.5-0.9 77.7-45.5c4-2.4 8.9-2.3 12.8 0.2l11 6.5 0.2 1.5-5.4 5.4v474c0 13.4-7.1 26-18.6 32.8-25.6 15.3-156.4 93.3-219.5 131.3q-0.1 0-0.2 0.1v5.2zm-9.9-7.9l9.4 5.3v-4.1l0.5-0.9 0.3-0.1q0.2-0.1 0.4-0.2c63.1-38 193.9-116 219.4-131.3 10.9-6.5 17.7-18.4 17.7-31.1v-474.4l0.3-0.7 4.7-4.7-9.8-5.9c-3.4-2.1-7.4-2.1-10.8-0.2l-77.2 45.3v3.1c0 11.5-9.3 26.3-20.8 32.9l-24.5 14.2c-5.1 2.9-10 3.9-13.9 2.8-2.7-0.7-4.8-2.3-6.2-4.7l0.4-1.4 6.4-3.8-7.6-4.3-78.7 46.1c-9.3 5.5-15.1 15.5-15.1 26.3v482.9c0 3.7 1.9 7 5.1 8.9z"/>
					</g>
					<g id="&lt;Group&gt;">
						<g id="&lt;Group&gt;">
							<path id="&lt;Path&gt;" class="s12" d="m653.2 230.6v477c0 13.1-6.9 25.2-18.1 31.9-44.9 26.8-161.6 96.5-219.4 131.3-7.6 4.6-17.2-0.9-17.2-9.7v-482.9c0-11.2 5.9-21.5 15.5-27.2l79.2-46.4v3c0 11.3 9.2 15.1 20.4 8.6l24.5-14.1c11.2-6.5 20.4-20.9 20.4-32.1v-3.6l77.6-45.6c7.6-4.4 17.1 1.1 17.1 9.8z"/>
							<path id="&lt;Path&gt;" class="s11" d="m652.2 230.6q0 10.4 0 20.8 0 27.3 0 54.6 0 38.4 0 76.8 0 44 0 87.9 0 44 0 88 0 38.2 0 76.4 0 26.6 0 53.3c0 8 0.9 16.7-0.4 24.7-1.8 11.7-9 20.7-19 26.6q-8.7 5.2-17.4 10.4-23.5 14-46.9 28-54.5 32.5-108.8 65.1-11.9 7.1-23.9 14.3c-7 4.2-14 9.2-21.4 12.8-7.1 3.6-14.7-1.9-14.9-9.4-0.1-0.8 0-1.6 0-2.3q0-16.5 0-33 0-31.5 0-62.9 0-40.8 0-81.7 0-44.4 0-88.9 0-42.8 0-85.6 0-35.8 0-71.5 0-22.9 0-45.8 0-4.9 0-9.9c0-11.5 5.4-21.6 15.3-27.6 19.9-11.9 40.1-23.5 60.2-35.3q9.4-5.5 18.8-11-0.8-0.4-1.6-0.8c0 3.8 0 7.7 2 11 2.2 3.5 6.1 5 10.1 4.8 6.6-0.4 12.7-4.9 18.2-8.1 5.4-3.1 10.8-6.2 16.1-9.3 9.7-5.8 17.6-16 20.1-27q0.7-3 0.8-6.1c0-0.8 0.1-1.8 0-2.6-0.3-1 0.3-0.8-0.5-0.1 0.8-0.6 1.8-1 2.6-1.5q7.1-4.2 14.2-8.3 20.9-12.3 41.8-24.6 8.3-4.8 16.5-9.6c0.8-0.5 1.7-1 2.5-1.5 7.1-3.8 15.3 0.9 15.6 8.9 0.1 1.3 2.1 1.3 2 0-0.3-9.5-10.2-15.2-18.6-10.6-2.6 1.4-5.1 3-7.7 4.5q-19.7 11.6-39.5 23.1-9.6 5.6-19.1 11.3c-3.6 2-7.4 3.9-10.7 6.2-1.1 0.8-1.1 1.3-1.1 2.8 0 5.6-1.2 10.7-3.8 15.7-4.4 8.6-11.1 14.7-19.3 19.5-6.9 3.9-13.7 7.9-20.5 11.8-4.2 2.4-9.7 4.9-14.5 2.7-5.1-2.3-5.2-8.2-5.2-13 0-0.8-0.8-1.3-1.5-0.9q-29 17-58 34c-7 4.2-14.2 8.2-21.2 12.4-10.3 6.3-16 17.1-16 29-0.1 9.6 0 19.2 0 28.8q0 30.4 0 60.7 0 40.4 0 80.8 0 45 0 90 0 43.8 0 87.5 0 36.8 0 73.6 0 24 0 48 0 5.5 0 11 0 0.7 0 1.5c0.2 7.4 6.4 13.3 13.9 12.3 4.1-0.5 7.6-3.4 11-5.4q5.3-3.2 10.5-6.3 12.1-7.3 24.1-14.5 27.2-16.3 54.4-32.5 51.6-30.9 103.2-61.7c14.1-8.4 31-15.5 37.2-31.9 2.1-5.5 2.4-11.1 2.4-16.9q0-18 0-35.9 0-32.9 0-65.7 0-42 0-84 0-45.3 0-90.5 0-42.6 0-85.1 0-33.9 0-67.8 0-19.7 0-39.3 0-2.6 0-5.2c0-1.3-2-1.3-2 0z"/>
						</g>
					</g>
				</g>
				<g id="&lt;Group&gt;">
					<g id="&lt;Group&gt;">
						<g id="&lt;Group&gt;">
							<path id="&lt;Path&gt;" class="s3" d="m620.1 320.5l-188.5 108.9c-3.7 2.1-6.6-0.2-6.6-5v-19.7c0-4.9 2.9-10.5 6.6-12.7l188.5-108.8c3.7-2.1 6.6 0.1 6.6 5v19.7c0 4.8-2.9 10.5-6.6 12.6z"/>
							<path id="&lt;Path&gt;" class="s13" d="m620.1 320.5l-188.5 108.9c-3.7 2.1-6.6-0.2-6.6-5v-19.7c0-4.9 2.9-10.5 6.6-12.7l188.5-108.8c3.7-2.1 6.6 0.1 6.6 5v19.7c0 4.8-2.9 10.5-6.6 12.6z"/>
						</g>
						<g id="&lt;Group&gt;">
							<path id="&lt;Compound Path&gt;" fill-rule="evenodd" class="s5" d="m609.8 298c2.7 1.5 2.7 6.5 0 11.1-1.3 2.3-3.1 4.1-4.8 5.1-1.8 1-3.5 1.3-4.9 0.5-2.6-1.5-2.6-6.5 0-11.1 1.4-2.4 3.1-4.1 4.9-5.1 1.7-1.1 3.5-1.3 4.8-0.5zm-8 6.5c-1.8 3-1.8 6.3 0 7.3 0.8 0.5 2 0.4 3.2-0.3 1.2-0.7 2.3-1.9 3.1-3.3 0.9-1.5 1.3-3.1 1.3-4.5 0-1.3-0.4-2.4-1.3-2.9-0.8-0.4-1.9-0.3-3.1 0.4-1.2 0.7-2.4 1.8-3.2 3.3z"/>
							<g id="&lt;Group&gt;">
								<path id="&lt;Path&gt;" class="s5" d="m614.7 317.9c-0.3 0-0.6-0.1-0.9-0.3l-6.5-6.5c-0.4-0.5-0.4-1.2 0-1.7 0.5-0.4 1.2-0.4 1.7 0l6.5 6.5c0.5 0.5 0.5 1.2 0 1.7-0.2 0.2-0.5 0.3-0.8 0.3z"/>
							</g>
						</g>
					</g>
					<g id="&lt;Group&gt;">
						<path id="&lt;Path&gt;" class="s3" d="m453 448.6c0 9-6.3 19.9-14 24.3-7.8 4.5-14 0.9-14-8.1 0-8.9 6.2-19.8 14-24.3 7.7-4.4 14-0.8 14 8.1z"/>
						<g id="&lt;Group&gt;">
							<path id="&lt;Path&gt;" class="s3" d="m466.4 437c-0.7 0-1.4-0.4-1.7-1-0.6-1-0.3-2.2 0.7-2.7l64.6-37.3c0.9-0.6 2.1-0.3 2.7 0.7 0.6 1 0.2 2.2-0.7 2.7l-64.6 37.3q-0.5 0.3-1 0.3z"/>
							<path id="&lt;Path&gt;" class="s3" d="m466.4 449.2c-0.7 0-1.4-0.4-1.7-1-0.6-1-0.3-2.2 0.7-2.7l39.6-22.9c1-0.5 2.2-0.2 2.7 0.7 0.6 1 0.3 2.2-0.7 2.8l-39.6 22.8q-0.5 0.3-1 0.3z"/>
						</g>
					</g>
					<g id="&lt;Group&gt;">
						<path id="&lt;Path&gt;" class="s3" d="m507.2 556.3l-72.7 42c-5.2 3-9.5-0.2-9.5-7.3v-80.4c0-7.1 4.3-15.3 9.5-18.3l72.7-42c5.3-3 9.6 0.2 9.6 7.3v80.4c0 7.1-4.3 15.3-9.6 18.3z"/>
						<path id="&lt;Path&gt;" class="s14" d="m507.2 556.3l-72.7 42c-5.2 3-9.5-0.2-9.5-7.3v-80.4c0-7.1 4.3-15.3 9.5-18.3l72.7-42c5.3-3 9.6 0.2 9.6 7.3v80.4c0 7.1-4.3 15.3-9.6 18.3z"/>
						<g id="&lt;Group&gt;">
							<path id="&lt;Path&gt;" class="s3" d="m510.6 532.3l-78.9 45.5 23.3-60.6 18.4 16.9 14.2-21.3z"/>
							<path id="&lt;Path&gt;" class="s3" d="m483.2 494.4c0 4.6-3.2 10.2-7.2 12.5-4 2.3-7.2 0.4-7.2-4.2 0-4.6 3.2-10.2 7.2-12.5 4-2.3 7.2-0.4 7.2 4.2z"/>
						</g>
					</g>
					<g id="&lt;Group&gt;">
						<path id="&lt;Path&gt;" class="s3" d="m617.2 493.2l-72.7 42c-5.3 3-9.6-0.2-9.6-7.3v-80.4c0-7.1 4.3-15.3 9.6-18.3l72.7-42c5.2-3 9.5 0.2 9.5 7.3v80.4c0 7.1-4.3 15.3-9.5 18.3z"/>
						<path id="&lt;Path&gt;" class="s14" d="m617.2 493.2l-72.7 42c-5.3 3-9.6-0.2-9.6-7.3v-80.4c0-7.1 4.3-15.3 9.6-18.3l72.7-42c5.2-3 9.5 0.2 9.5 7.3v80.4c0 7.1-4.3 15.3-9.5 18.3z"/>
						<g id="&lt;Group&gt;">
							<path id="&lt;Path&gt;" class="s3" d="m620.3 467.3l-78.9 45.6 23.3-60.7 18.4 17 14.2-21.3z"/>
							<path id="&lt;Path&gt;" class="s3" d="m592.9 429.5c0 4.6-3.2 10.2-7.2 12.5-4 2.2-7.2 0.4-7.2-4.2 0-4.6 3.2-10.2 7.2-12.5 4-2.3 7.2-0.4 7.2 4.2z"/>
						</g>
					</g>
					<g id="&lt;Group&gt;">
						<path id="&lt;Path&gt;" class="s3" d="m507.2 780l-72.7 42c-5.2 3-9.5-0.2-9.5-7.3 0-7 4.3-15.2 9.5-18.3l72.7-41.9c5.3-3.1 9.6 0.2 9.6 7.2 0 7.1-4.3 15.3-9.6 18.3z"/>
						<path id="&lt;Path&gt;" class="s3" d="m617.2 715.6l-72.7 42c-5.3 3-9.6-0.2-9.6-7.3 0-7 4.3-15.2 9.6-18.3l72.7-41.9c5.2-3.1 9.5 0.2 9.5 7.2 0 7.1-4.3 15.3-9.5 18.3z"/>
					</g>
					<g id="&lt;Group&gt;">
						<g id="&lt;Group&gt;">
							<g id="&lt;Group&gt;">
								<path id="&lt;Path&gt;" class="s1" d="m620.1 667.6l-188.5 108.9c-3.7 2.1-6.6-0.2-6.6-5v-139c0-4.9 2.9-10.5 6.6-12.6l188.5-108.9c3.7-2.1 6.6 0.2 6.6 5v139c0 4.9-2.9 10.5-6.6 12.6z"/>
							</g>
						</g>
						<g id="&lt;Group&gt;">
							<path id="&lt;Path&gt;" class="s5" d="m444.4 636c-0.7 0-1.4-0.4-1.7-1-0.6-1-0.3-2.2 0.7-2.7l162.9-94.1c1-0.6 2.2-0.2 2.7 0.7 0.6 1 0.3 2.2-0.7 2.8l-162.9 94q-0.5 0.3-1 0.3z"/>
							<path id="&lt;Path&gt;" class="s5" d="m444.4 654.9c-0.7 0-1.4-0.3-1.7-1-0.6-0.9-0.3-2.2 0.7-2.7l162.9-94.1c1-0.5 2.2-0.2 2.7 0.8 0.6 0.9 0.3 2.1-0.7 2.7l-162.9 94.1q-0.5 0.2-1 0.2z"/>
							<path id="&lt;Path&gt;" class="s5" d="m444.4 673.9c-0.7 0-1.4-0.4-1.7-1-0.6-1-0.3-2.2 0.7-2.8l162.9-94c1-0.6 2.2-0.3 2.7 0.7 0.6 0.9 0.3 2.2-0.7 2.7l-162.9 94.1q-0.5 0.3-1 0.3z"/>
							<path id="&lt;Path&gt;" class="s5" d="m444.4 692.8c-0.7 0-1.4-0.4-1.7-1-0.6-1-0.3-2.2 0.7-2.7l162.9-94.1c1-0.6 2.2-0.2 2.7 0.7 0.6 1 0.3 2.2-0.7 2.8l-162.9 94q-0.5 0.3-1 0.3z"/>
							<path id="&lt;Path&gt;" class="s5" d="m444.4 711.7c-0.7 0-1.4-0.3-1.7-1-0.6-0.9-0.3-2.2 0.7-2.7l162.9-94.1c1-0.5 2.2-0.2 2.7 0.8 0.6 0.9 0.3 2.1-0.7 2.7l-162.9 94q-0.5 0.3-1 0.3z"/>
							<path id="&lt;Path&gt;" class="s5" d="m444.4 730.6c-0.7 0-1.4-0.3-1.7-1-0.6-0.9-0.3-2.1 0.7-2.7l162.9-94.1c1-0.5 2.2-0.2 2.7 0.8 0.6 0.9 0.3 2.2-0.7 2.7l-162.9 94.1q-0.5 0.3-1 0.2z"/>
							<path id="&lt;Path&gt;" class="s5" d="m444.4 749.6c-0.7 0-1.4-0.4-1.7-1-0.6-1-0.3-2.2 0.7-2.8l162.9-94c1-0.6 2.2-0.2 2.7 0.7 0.6 1 0.3 2.2-0.7 2.7l-162.9 94.1q-0.5 0.3-1 0.3z"/>
						</g>
					</g>
				</g>
			</g>
		</g>
		<g id="Character">
			<g id="&lt;Group&gt;">
				<g id="&lt;Group&gt;">
					<path id="&lt;Path&gt;" class="s15" d="m716.3 492.8l-10.7 12.8 25.1 40.6-9 10.5-35.4-41.8c-4.2-5-4.5-12.1-0.7-17.4l13.9-19.4z"/>
					<path id="&lt;Path&gt;" class="s3" d="m746.7 445.9l-9.9-0.9c-7.7-0.7-15.3 2.6-20.1 8.7l-21.7 28c0 0 2.8 10.6 20.7 16.4l25.7-36.2z"/>
					<path id="&lt;Path&gt;" class="s16" d="m746.7 445.9l-9.9-0.9c-7.7-0.7-15.3 2.6-20.1 8.7l-21.7 28c0 0 2.8 10.6 20.7 16.4l25.7-36.2z"/>
					<g id="&lt;Group&gt;">
						<g id="&lt;Group&gt;">
							<g id="&lt;Group&gt;">
								<path id="&lt;Path&gt;" class="s17" d="m741 753.8c0 0 2.5 5.5 1.9 14-0.2 2.1-7.3 3.9-9.3 4.4-2 0.5-8.2 4.3-11.3 6.5-3.1 2.1-9.8 7-20.4 7-10.6 0-15.5-3.7-15.5-7.4 0-3.6 6.9-7.8 12.1-8.5 3.4-0.5 20.3-10.5 23.3-18.2z"/>
								<path id="&lt;Path&gt;" class="s9" d="m741 751.2c0 0 2.5 5.5 1.9 13.9-0.2 2.2-7.3 4-9.3 4.5-2 0.4-8.2 4.3-11.3 6.4-3.1 2.2-9.8 7.1-20.4 7.1-10.6 0-15.5-3.7-15.5-7.4 0-3.7 6.9-7.8 12.1-8.6 3.4-0.5 20.3-10.4 23.3-18.1z"/>
								<path id="&lt;Path&gt;" class="s12" d="m710.5 776.6c0.1 2 0 5.1 0 5.3-2.6 0.7-5.4 1.2-8.6 1.2-10.6 0-15.5-3.7-15.5-7.4 0-3.7 6.9-7.8 12.1-8.6 0 0 11.2-0.6 12 9.5z"/>
								<path id="&lt;Path&gt;" class="s12" d="m716.1 767.1q0.3 0 0.6-0.1c0.5-0.3 0.7-1 0.4-1.5-2.4-4.3-8-4.8-8.2-4.8-0.6-0.1-1.1 0.4-1.2 1 0 0.6 0.4 1.1 1 1.2 0 0 4.7 0.4 6.5 3.7 0.2 0.3 0.6 0.5 0.9 0.5z"/>
								<path id="&lt;Path&gt;" class="s12" d="m721.2 763.6q0.3 0 0.5-0.1c0.6-0.3 0.7-1 0.5-1.5-2.5-4.3-8-4.8-8.3-4.8-0.6-0.1-1.1 0.3-1.1 0.9-0.1 0.6 0.4 1.2 1 1.2 0 0 4.6 0.5 6.4 3.8 0.2 0.3 0.6 0.5 1 0.5z"/>
								<path id="&lt;Path&gt;" class="s12" d="m725.8 759.3q0.3 0 0.5-0.1c0.6-0.3 0.8-1 0.5-1.5-2.4-4.3-8-4.8-8.3-4.8-0.6-0.1-1.1 0.4-1.1 1-0.1 0.6 0.4 1.1 1 1.1 0 0 4.6 0.5 6.5 3.8 0.2 0.3 0.5 0.5 0.9 0.5z"/>
							</g>
							<path id="&lt;Path&gt;" class="s7" d="m759.2 546.4l-9.5 107.6c0 0 1.3 12.9-1.4 43-2.6 30.1-5.7 55.8-5.7 55.8 0 0-14.5 5.6-23.1-2.4 0 0-2.5-73.4-2.5-97.9 0-26.3 2.5-105.1 2.5-105.1z"/>
							<path id="&lt;Path&gt;" class="s17" d="m752.5 621.9l-4.7-36.8c0 0-15.8-2.2-18.6-10-3.4-9.7-1.5-22.1-1.5-22.1l31-1.1z"/>
						</g>
						<g id="&lt;Group&gt;">
							<g id="&lt;Group&gt;">
								<path id="&lt;Path&gt;" class="s17" d="m794.8 767.1c0 0 3.3 18.7 3.3 25.2 0 6.4-3.9 14.7-14.8 14.7-10.8 0-10.4-12.5-9.7-17.7 0.6-5.2 3.3-22.2 3.3-22.2z"/>
								<path id="&lt;Path&gt;" class="s9" d="m794.6 765.1c0 0 3.2 18.3 3.2 24.6 0 6.3-3.8 14.4-14.4 14.4-10.6 0-10.2-12.3-9.5-17.3 0.6-5.1 3.2-21.7 3.2-21.7z"/>
								<path id="&lt;Path&gt;" class="s12" d="m784.6 787.5h1.5c4.1 0 8 2.1 10.2 5.6l0.8 1.3c-1.5 5-5.7 9.7-13.7 9.7-6.7 0-9-4.9-9.6-9.8 2-4.1 6.2-6.8 10.8-6.8z"/>
							</g>
							<path id="&lt;Path&gt;" class="s7" d="m790.9 544.5l4.9 106c0 0 6.6 31.5 4.1 63.9-2.5 32.3-2.9 54.4-2.9 54.4 0 0-14.1 7.4-21.3-1.2l-14.5-120.1-10-65.7c0 0-19.4-1.1-23.3-11.3-3.9-10.2-4.5-22.1-4.5-22.1z"/>
							<path id="&lt;Path&gt;" class="s12" d="m790.1 782.3c0.4 0 0.7-0.2 0.9-0.6 0.3-0.5 0.1-1.2-0.4-1.5-0.2-0.1-5.9-3.1-10.8 0.1-0.5 0.3-0.7 1-0.4 1.5 0.4 0.5 1 0.6 1.5 0.3 3.9-2.5 8.6 0 8.7 0.1q0.2 0.1 0.5 0.1z"/>
							<path id="&lt;Path&gt;" class="s12" d="m790.1 777.6c0.4 0 0.7-0.2 0.9-0.6 0.3-0.5 0.1-1.2-0.4-1.5-0.2-0.1-5.9-3.1-10.8 0.1-0.5 0.3-0.7 1-0.4 1.5 0.4 0.5 1 0.6 1.5 0.3 3.9-2.5 8.6 0 8.7 0q0.2 0.2 0.5 0.2z"/>
							<path id="&lt;Path&gt;" class="s12" d="m790.1 772.8c0.4 0 0.7-0.2 0.9-0.5 0.3-0.6 0.1-1.2-0.4-1.5-0.2-0.1-5.9-3.1-10.8 0-0.5 0.4-0.7 1-0.4 1.5 0.4 0.5 1 0.7 1.5 0.4 3.9-2.5 8.6 0 8.7 0q0.2 0.1 0.5 0.1z"/>
						</g>
					</g>
					<path id="&lt;Path&gt;" class="s3" d="m720.7 468.7l-2.9 85.7c0 0 29 21 75.2 5l0.1-96.2c0-7.1-5.5-13.2-12.6-13.9l-33.8-3.4c-13.6-1.4-25.6 9.1-26 22.8z"/>
					<path id="&lt;Path&gt;" class="s18" d="m720.7 468.7l-2.9 85.7c0 0 29 21 75.2 5l0.1-96.2c0-7.1-5.5-13.2-12.6-13.9l-33.8-3.4c-13.6-1.4-25.6 9.1-26 22.8z"/>
					<path id="&lt;Path&gt;" class="s15" d="m815.8 489.2l8.6 23.9 56.6 11.7v15.3l-65-3.8c-4.9-0.3-9.2-3.3-11.2-7.7l-11.7-26.2z"/>
					<path id="&lt;Path&gt;" class="s3" d="m780.5 449.3v11.3c0 9.1 1.8 18.1 5.2 26.5l9.8 24c0 0 21.8-4.6 25.7-15.3l-14-32.7c-3.4-7.9-11-13.1-19.6-13.5z"/>
					<path id="&lt;Path&gt;" class="s16" d="m780.5 449.3v11.3c0 9.1 1.8 18.1 5.2 26.5l9.8 24c0 0 21.8-4.6 25.7-15.3l-14-32.7c-3.4-7.9-11-13.1-19.6-13.5z"/>
					<g id="&lt;Group&gt;">
						<path id="&lt;Path&gt;" class="s17" d="m727.6 383.5c0 0-12.5 10.9-1.6 35.3l12.7-33z"/>
						<g id="&lt;Group&gt;">
							<g id="&lt;Group&gt;">
								<path id="&lt;Path&gt;" class="s15" d="m768.8 448.1l-21.1 15.8v-50.1h21.1z"/>
							</g>
						</g>
						<path id="&lt;Path&gt;" class="s19" d="m747.7 442.5c7.8-3 17.6-7.9 17.6-12.7l2.6-16h-20.2z"/>
						<path id="&lt;Path&gt;" class="s15" d="m752.1 376.7c-7.7 0-24 4.3-25.9 24.3-1.8 20 1.1 37.1 10.3 37.1 18.1 0 35.5-2.3 35.6-32 0.2-26.1-12.6-29.4-20-29.4z"/>
						<path id="&lt;Path&gt;" class="s17" d="m768.8 423.7l-3-9.1c-1 0.9-2.5 0.2-2.5-1.1v-16.2c0 0-7.5-2.1-6.7-8.4 0 0-3.9 3.4-18.6 3.4-14.8 0-18.4-12.5-16.9-19.5 0 0 2.7 2.9 10.5 2.9 7.8 0 40.3-9.9 41.2 9.8 0 0 2.7-4 7.2 0l-5.7 3.4c0 0 6.7-0.2 5.7 9.7-0.9 7.8-4.1 22.6-5.5 28.6-0.4 1.6-1.3 3-2.7 4l-3 2z"/>
						<path id="&lt;Path&gt;" class="s19" d="m740.6 407v11.8l-7-2.1z"/>
						<g id="&lt;Group&gt;">
							<path id="&lt;Path&gt;" class="s17" d="m752.8 409c0 1.4-1 2.5-2.4 2.5-1.3 0-2.4-1.1-2.4-2.5 0-1.3 1.1-2.4 2.4-2.4 1.4 0 2.4 1.1 2.4 2.4z"/>
							<path id="&lt;Path&gt;" class="s17" d="m734.8 407.4c0 1.3-1.1 2.4-2.4 2.4-1.3 0-2.4-1.1-2.4-2.4 0-1.4 1.1-2.4 2.4-2.4 1.3 0 2.4 1 2.4 2.4z"/>
							<path id="&lt;Path&gt;" class="s17" d="m729.5 402.4l4.7-2.8c0 0-1.8-1.9-3.6-0.8-1.8 1.1-1.1 3.6-1.1 3.6z"/>
							<path id="&lt;Path&gt;" class="s17" d="m755.3 404.1l-4.7-2.8c0 0 1.8-1.9 3.6-0.8 1.8 1.2 1.1 3.6 1.1 3.6z"/>
						</g>
						<path id="&lt;Path&gt;" class="s19" d="m737.3 423.6c0 0 3.8 0.4 6.5-1.7 0 0 0.4 3.4-2.4 4-2.9 0.7-4.1-2.3-4.1-2.3z"/>
						<path id="&lt;Path&gt;" class="s15" d="m767 411.3c-2.8 4.7-2.1 10.4 1.8 12.4 2.4 1.2 9.6-1.5 12.3-6.2 2.8-4.7 1.2-8.8-2.5-10.9-3.7-2.2-8.9-0.1-11.6 4.7z"/>
						<path id="&lt;Path&gt;" class="s10" d="m765.6 414.8l8.3-9.1-6-3.6z"/>
					</g>
				</g>
				<g id="&lt;Group&gt;">
					<path id="&lt;Path&gt;" class="s20" d="m852.8 693.1h-28.1v7.6c0 5.8 0.8 11.6 2.3 17.1l22.6 82c0.9 3.3 5.6 3.3 6.5 0l22.6-82c1.5-5.6 2.3-11.3 2.3-17.1v-7.6z"/>
					<g id="&lt;Group&gt;">
						<path id="&lt;Path&gt;" class="s7" d="m860.2 780.3c-4 2.3-10.7 2.3-14.7 0-0.7-0.4-1.2-0.8-1.6-1.2l5.7 20.7c0.9 3.3 5.6 3.3 6.5 0l5.7-20.7c-0.5 0.4-0.9 0.8-1.6 1.2z"/>
					</g>
					<path id="&lt;Path&gt;" class="s3" d="m824.7 320.9v381.9c0 4.1 2.7 8.3 8.2 11.5 11 6.3 28.9 6.3 39.9 0 5.5-3.2 8.2-7.4 8.2-11.5v-381.9z"/>
					<g id="&lt;Group&gt;">
						<path id="&lt;Path&gt;" class="s2" d="m872.8 384.6c11 6.3 11 16.6 0 23-11 6.4-28.9 6.4-39.9 0-11-6.4-11-16.7 0-23 11-6.4 28.9-6.4 39.9 0z"/>
						<path id="&lt;Path&gt;" class="s2" d="m881 396.1h-56.3v-62.5h56.3z"/>
						<path id="&lt;Path&gt;" class="s3" d="m872.8 385.1c-11 6.4-28.9 6.4-39.9 0-5.5-3.2-8.2-7.3-8.2-11.5v7.8c0 4.1 2.7 8.3 8.2 11.5 11 6.3 28.9 6.3 39.9 0 5.5-3.2 8.2-7.4 8.2-11.5v-7.8c0 4.2-2.7 8.3-8.2 11.5z"/>
						<path id="&lt;Path&gt;" class="s3" d="m872.8 361.3c-11 6.4-28.9 6.4-39.9 0-5.5-3.1-8.2-7.3-8.2-11.5v7.8c0 4.2 2.7 8.3 8.2 11.5 11 6.4 28.9 6.4 39.9 0 5.5-3.2 8.2-7.3 8.2-11.5v-7.8c0 4.2-2.7 8.4-8.2 11.5z"/>
						<path id="&lt;Path&gt;" class="s21" d="m872.8 322.1c11 6.3 11 16.6 0 23-11 6.3-28.9 6.3-39.9 0-11-6.4-11-16.7 0-23 11-6.4 28.9-6.4 39.9 0z"/>
						<path id="&lt;Path&gt;" class="s21" d="m881 333.6h-56.3v-47.9h56.3z"/>
						<path id="&lt;Path&gt;" class="s20" d="m872.8 274.2c11 6.4 11 16.7 0 23-11 6.4-28.9 6.4-39.9 0.1-11-6.4-11-16.7 0-23.1 11-6.3 28.9-6.3 39.9 0z"/>
					</g>
				</g>
				<path id="&lt;Path&gt;" class="s15" d="m881 516.5c0 0-4.1 2.9-10.3 0-8.7-4.1-4.2 24.4 10.3 20.5 14.6-3.9 10-25.9 0-25.9z"/>
			</g>
		</g>
	</g>
</svg>