<svg version="1.2" xmlns="http://www.w3.org/2000/svg" viewBox="0 0 3710 3710" width="3710" height="3710">
	<title>19198683</title>
	<defs>
		<linearGradient id="g1" x2="1" gradientUnits="userSpaceOnUse" gradientTransform="matrix(-3392.715,-4213.539,4260.153,-3430.248,2721.142,6032.538)">
			<stop offset="0" stop-color="#b37cff"/>
			<stop offset="1" stop-color="#f895e7"/>
		</linearGradient>
		<linearGradient id="g2" x2="1" gradientUnits="userSpaceOnUse" gradientTransform="matrix(-504.88,333.454,-710.833,-1076.266,645.335,1112.983)">
			<stop offset="0" stop-color="#b37cff"/>
			<stop offset="1" stop-color="#f895e7"/>
		</linearGradient>
		<linearGradient id="g3" x2="1" gradientUnits="userSpaceOnUse" gradientTransform="matrix(753.341,1978.771,-540.613,205.817,2081.208,-836.029)">
			<stop offset="0" stop-color="#cb236d"/>
			<stop offset="1" stop-color="#4c246d"/>
		</linearGradient>
		<linearGradient id="g4" x2="1" gradientUnits="userSpaceOnUse" gradientTransform="matrix(-1178.263,2255.097,-1164.352,-608.361,1299.3,85.324)">
			<stop offset="0" stop-color="#a737d5"/>
			<stop offset="1" stop-color="#ef497a"/>
		</linearGradient>
		<linearGradient id="g5" x2="1" gradientUnits="userSpaceOnUse" gradientTransform="matrix(-1273.753,2121.997,-702.601,-421.744,2422.974,-964.978)">
			<stop offset="0" stop-color="#a737d5"/>
			<stop offset="1" stop-color="#ef497a"/>
		</linearGradient>
		<linearGradient id="g6" x2="1" gradientUnits="userSpaceOnUse" gradientTransform="matrix(-472.961,2697.157,-248.993,-43.662,9034.816,3890.198)">
			<stop offset="0" stop-color="#2b3582"/>
			<stop offset="1" stop-color="#150e42"/>
		</linearGradient>
		<linearGradient id="g7" x2="1" gradientUnits="userSpaceOnUse" gradientTransform="matrix(-510.185,2909.434,-1273.417,-223.3,6820.868,3559.594)">
			<stop offset="0" stop-color="#2b3582"/>
			<stop offset="1" stop-color="#150e42"/>
		</linearGradient>
		<linearGradient id="g8" x2="1" gradientUnits="userSpaceOnUse" gradientTransform="matrix(-475.545,2711.893,-632.21,-110.861,10085.319,4071.987)">
			<stop offset="0" stop-color="#2b3582"/>
			<stop offset="1" stop-color="#150e42"/>
		</linearGradient>
		<linearGradient id="g9" x2="1" gradientUnits="userSpaceOnUse" gradientTransform="matrix(-568.775,3637.52,-3454.978,-540.232,3132.547,1028.964)">
			<stop offset="0" stop-color="#2b3582"/>
			<stop offset="1" stop-color="#150e42"/>
		</linearGradient>
		<linearGradient id="g10" x2="1" gradientUnits="userSpaceOnUse" gradientTransform="matrix(-2721.294,5662.32,-5795.754,-2785.422,3949.667,172.988)">
			<stop offset="0" stop-color="#53d8ff"/>
			<stop offset="1" stop-color="#3840f7"/>
		</linearGradient>
		<linearGradient id="g11" x2="1" gradientUnits="userSpaceOnUse" gradientTransform="matrix(-1683.081,3459.665,-3545.557,-1724.866,2931.098,2022.247)">
			<stop offset="0" stop-color="#ffffff"/>
			<stop offset="1" stop-color="#ffffff"/>
		</linearGradient>
		<linearGradient id="g12" x2="1" gradientUnits="userSpaceOnUse" gradientTransform="matrix(131.941,1473.345,-1104.449,98.906,2700.164,488.499)">
			<stop offset="0" stop-color="#fdf53f"/>
			<stop offset="1" stop-color="#d93c65"/>
		</linearGradient>
		<linearGradient id="g13" x2="1" gradientUnits="userSpaceOnUse" gradientTransform="matrix(-168.339,0,0,-173.519,3151.357,2229.48)">
			<stop offset="0" stop-color="#f9b776"/>
			<stop offset="1" stop-color="#f47960"/>
		</linearGradient>
		<linearGradient id="g14" x2="1" gradientUnits="userSpaceOnUse" gradientTransform="matrix(396.628,557.337,-318.746,226.836,2200.315,1148.069)">
			<stop offset="0" stop-color="#fdf53f"/>
			<stop offset="1" stop-color="#d93c65"/>
		</linearGradient>
		<linearGradient id="g15" x2="1" gradientUnits="userSpaceOnUse" gradientTransform="matrix(753.957,1007.614,-921.287,689.362,1740.442,1293.213)">
			<stop offset="0" stop-color="#cb236d"/>
			<stop offset="1" stop-color="#4c246d"/>
		</linearGradient>
		<linearGradient id="g16" x2="1" gradientUnits="userSpaceOnUse" gradientTransform="matrix(1624.455,-882.855,2668.752,4910.507,3757.696,986.187)">
			<stop offset="0" stop-color="#2b3582"/>
			<stop offset="1" stop-color="#150e42"/>
		</linearGradient>
		<linearGradient id="g17" x2="1" gradientUnits="userSpaceOnUse" gradientTransform="matrix(-283.225,-23.275,28.848,-351.042,2579.12,1553.477)">
			<stop offset="0" stop-color="#18459f"/>
			<stop offset=".99" stop-color="#2874b5"/>
		</linearGradient>
		<linearGradient id="g18" x2="1" gradientUnits="userSpaceOnUse" gradientTransform="matrix(-126.228,0,0,-98.755,2982.094,3132.932)">
			<stop offset="0" stop-color="#2b3582"/>
			<stop offset="1" stop-color="#150e42"/>
		</linearGradient>
		<linearGradient id="g19" x2="1" gradientUnits="userSpaceOnUse" gradientTransform="matrix(488.928,383.908,-300.455,382.646,2646.682,3029.936)">
			<stop offset="0" stop-color="#53d8ff"/>
			<stop offset="1" stop-color="#3840f7"/>
		</linearGradient>
		<linearGradient id="g20" x2="1" gradientUnits="userSpaceOnUse" gradientTransform="matrix(25.419,221.84,-178.148,20.413,2898.306,3040.283)">
			<stop offset="0" stop-color="#f9b776"/>
			<stop offset="1" stop-color="#f47960"/>
		</linearGradient>
		<linearGradient id="g21" x2="1" gradientUnits="userSpaceOnUse" gradientTransform="matrix(475.334,373.234,-305.639,389.249,2575.21,3140.744)">
			<stop offset="0" stop-color="#53d8ff"/>
			<stop offset="1" stop-color="#3840f7"/>
		</linearGradient>
		<linearGradient id="g22" x2="1" gradientUnits="userSpaceOnUse" gradientTransform="matrix(-181.704,0,0,-87.949,2789.882,3141.692)">
			<stop offset="0" stop-color="#2b3582"/>
			<stop offset="1" stop-color="#150e42"/>
		</linearGradient>
		<linearGradient id="g23" x2="1" gradientUnits="userSpaceOnUse" gradientTransform="matrix(24.827,216.676,-145.823,16.709,2684.98,3068.18)">
			<stop offset="0" stop-color="#f9b776"/>
			<stop offset="1" stop-color="#f47960"/>
		</linearGradient>
		<linearGradient id="g24" x2="1" gradientUnits="userSpaceOnUse" gradientTransform="matrix(857.326,1330.336,-1155.828,744.866,1582.387,2560.161)">
			<stop offset=".099" stop-color="#cb236d"/>
			<stop offset=".936" stop-color="#4c246d"/>
		</linearGradient>
		<linearGradient id="g25" x2="1" gradientUnits="userSpaceOnUse" gradientTransform="matrix(139.984,1370.671,-1151.166,117.567,2567.372,1860.65)">
			<stop offset="0" stop-color="#fdf53f"/>
			<stop offset="1" stop-color="#d93c65"/>
		</linearGradient>
		<linearGradient id="g26" x2="1" gradientUnits="userSpaceOnUse" gradientTransform="matrix(100.966,436.315,-395.944,91.623,2815.658,1684.795)">
			<stop offset="0" stop-color="#f9b776"/>
			<stop offset="1" stop-color="#f47960"/>
		</linearGradient>
		<linearGradient id="g27" x2="1" gradientUnits="userSpaceOnUse" gradientTransform="matrix(-55.711,327.832,-269.145,-45.738,2768.399,1567.416)">
			<stop offset="0" stop-color="#f9b776"/>
			<stop offset="1" stop-color="#f47960"/>
		</linearGradient>
		<linearGradient id="g28" x2="1" gradientUnits="userSpaceOnUse" gradientTransform="matrix(-133.717,-142.048,184.861,-174.019,3049.123,1639.515)">
			<stop offset="0" stop-color="#2b3582"/>
			<stop offset="1" stop-color="#150e42"/>
		</linearGradient>
		<linearGradient id="g29" x2="1" gradientUnits="userSpaceOnUse" gradientTransform="matrix(10.937,-254.079,259.732,11.18,2995.339,1959.949)">
			<stop offset="0" stop-color="#f9b776"/>
			<stop offset="1" stop-color="#f47960"/>
		</linearGradient>
		<linearGradient id="g30" x2="1" gradientUnits="userSpaceOnUse" gradientTransform="matrix(215.002,395.005,-280.21,152.519,2575.513,1948.865)">
			<stop offset="0" stop-color="#fdf53f"/>
			<stop offset="1" stop-color="#d93c65"/>
		</linearGradient>
		<linearGradient id="g31" x2="1" gradientUnits="userSpaceOnUse" gradientTransform="matrix(11.772,608.225,-654.297,12.664,2966.778,1750.574)">
			<stop offset=".099" stop-color="#cb236d"/>
			<stop offset=".936" stop-color="#4c246d"/>
		</linearGradient>
		<linearGradient id="g32" x2="1" gradientUnits="userSpaceOnUse" gradientTransform="matrix(-265.893,1655.153,-3163.49,-508.2,2549.078,1767.17)">
			<stop offset="0" stop-color="#fdf53f"/>
			<stop offset="1" stop-color="#d93c65"/>
		</linearGradient>
		<linearGradient id="g33" x2="1" gradientUnits="userSpaceOnUse" gradientTransform="matrix(-142.027,-37.943,52.214,-195.443,2464.199,1717.631)">
			<stop offset="0" stop-color="#f9b776"/>
			<stop offset="1" stop-color="#f47960"/>
		</linearGradient>
		<linearGradient id="g34" x2="1" gradientUnits="userSpaceOnUse" gradientTransform="matrix(248.603,-1676.019,1277.645,189.512,288.44,3356.605)">
			<stop offset="0" stop-color="#fdf53f"/>
			<stop offset="1" stop-color="#d93c65"/>
		</linearGradient>
		<linearGradient id="g35" x2="1" gradientUnits="userSpaceOnUse" gradientTransform="matrix(-2144.297,1768.325,-1363.328,-1653.192,1809.055,2820.662)">
			<stop offset="0" stop-color="#fdf53f"/>
			<stop offset="1" stop-color="#d93c65"/>
		</linearGradient>
		<linearGradient id="g36" x2="1" gradientUnits="userSpaceOnUse" gradientTransform="matrix(-3013.471,148.839,-131.919,-2670.911,3635.973,2084.62)">
			<stop offset="0" stop-color="#fdf53f"/>
			<stop offset="1" stop-color="#d93c65"/>
		</linearGradient>
		<linearGradient id="g37" x2="1" gradientUnits="userSpaceOnUse" gradientTransform="matrix(-318.156,108.072,-98.291,-289.36,1295.096,2099.903)">
			<stop offset="0" stop-color="#fdf53f"/>
			<stop offset="1" stop-color="#d93c65"/>
		</linearGradient>
		<linearGradient id="g38" x2="1" gradientUnits="userSpaceOnUse" gradientTransform="matrix(-139.629,-366.908,401.135,-152.655,870.014,2576.629)">
			<stop offset="0" stop-color="#fdf53f"/>
			<stop offset="1" stop-color="#d93c65"/>
		</linearGradient>
		<linearGradient id="g39" x2="1" gradientUnits="userSpaceOnUse" gradientTransform="matrix(642.781,122.104,-108.997,573.782,1112.972,2197.646)">
			<stop offset="0" stop-color="#cb236d"/>
			<stop offset="1" stop-color="#4c246d"/>
		</linearGradient>
		<linearGradient id="g40" x2="1" gradientUnits="userSpaceOnUse" gradientTransform="matrix(-462.924,-452.327,450.267,-460.816,878.263,2888.919)">
			<stop offset="0" stop-color="#fdf53f"/>
			<stop offset="1" stop-color="#d93c65"/>
		</linearGradient>
		<linearGradient id="g41" x2="1" gradientUnits="userSpaceOnUse" gradientTransform="matrix(-522.3,237.853,-220.038,-483.179,912.444,2542.812)">
			<stop offset="0" stop-color="#cb236d"/>
			<stop offset="1" stop-color="#4c246d"/>
		</linearGradient>
		<linearGradient id="g42" x2="1" gradientUnits="userSpaceOnUse" gradientTransform="matrix(-597.564,82.456,-73.401,-531.944,1000.127,2835.05)">
			<stop offset="0" stop-color="#fdf53f"/>
			<stop offset="1" stop-color="#d93c65"/>
		</linearGradient>
		<linearGradient id="g43" x2="1" gradientUnits="userSpaceOnUse" gradientTransform="matrix(-370.937,-115.46,104.362,-335.282,678.302,2897.623)">
			<stop offset="0" stop-color="#fdf53f"/>
			<stop offset="1" stop-color="#d93c65"/>
		</linearGradient>
		<linearGradient id="g44" x2="1" gradientUnits="userSpaceOnUse" gradientTransform="matrix(-106.569,-623.867,699.048,-119.412,785.609,4068.23)">
			<stop offset="0" stop-color="#b37cff"/>
			<stop offset="1" stop-color="#f895e7"/>
		</linearGradient>
		<linearGradient id="g45" x2="1" gradientUnits="userSpaceOnUse" gradientTransform="matrix(10.252,18.287,-19.444,10.9,912.808,3194.08)">
			<stop offset="0" stop-color="#b37cff"/>
			<stop offset="1" stop-color="#f895e7"/>
		</linearGradient>
		<linearGradient id="g46" x2="1" gradientUnits="userSpaceOnUse" gradientTransform="matrix(-350.893,-83.091,74.492,-314.579,1123.288,3226.119)">
			<stop offset="0" stop-color="#fdf53f"/>
			<stop offset="1" stop-color="#d93c65"/>
		</linearGradient>
		<linearGradient id="g47" x2="1" gradientUnits="userSpaceOnUse" gradientTransform="matrix(-314.881,500.081,-527.774,-332.318,1216.053,2850.859)">
			<stop offset="0" stop-color="#fdf53f"/>
			<stop offset="1" stop-color="#d93c65"/>
		</linearGradient>
		<linearGradient id="g48" x2="1" gradientUnits="userSpaceOnUse" gradientTransform="matrix(1467.828,843.04,-406.579,707.9,776.584,1873.584)">
			<stop offset="0" stop-color="#fdf53f"/>
			<stop offset="1" stop-color="#d93c65"/>
		</linearGradient>
		<linearGradient id="g49" x2="1" gradientUnits="userSpaceOnUse" gradientTransform="matrix(1525.322,876.062,-598.879,1042.715,737.164,1885.332)">
			<stop offset="0" stop-color="#fdf53f"/>
			<stop offset="1" stop-color="#d93c65"/>
		</linearGradient>
		<linearGradient id="g50" x2="1" gradientUnits="userSpaceOnUse" gradientTransform="matrix(1706.68,980.224,-1117.551,1945.782,616.944,1996.54)">
			<stop offset="0" stop-color="#fdf53f"/>
			<stop offset="1" stop-color="#d93c65"/>
		</linearGradient>
		<linearGradient id="g51" x2="1" gradientUnits="userSpaceOnUse" gradientTransform="matrix(2777.048,1594.986,-2777.763,4836.396,-12.346,1765.695)">
			<stop offset="0" stop-color="#fdf53f"/>
			<stop offset="1" stop-color="#d93c65"/>
		</linearGradient>
		<linearGradient id="g52" x2="1" gradientUnits="userSpaceOnUse" gradientTransform="matrix(1332.937,385.087,-176.754,611.813,842.872,2570.913)">
			<stop offset="0" stop-color="#18459f"/>
			<stop offset=".99" stop-color="#2874b5"/>
		</linearGradient>
		<linearGradient id="g53" x2="1" gradientUnits="userSpaceOnUse" gradientTransform="matrix(337.267,437.141,-353.419,272.673,2179.055,2736.427)">
			<stop offset="0" stop-color="#18459f"/>
			<stop offset=".99" stop-color="#2874b5"/>
		</linearGradient>
		<linearGradient id="g54" x2="1" gradientUnits="userSpaceOnUse" gradientTransform="matrix(381.268,-648.157,672.628,395.663,1488.568,2932.89)">
			<stop offset="0" stop-color="#cb236d"/>
			<stop offset="1" stop-color="#4c246d"/>
		</linearGradient>
		<linearGradient id="g55" x2="1" gradientUnits="userSpaceOnUse" gradientTransform="matrix(-392.335,445.84,-325.313,-286.273,1992.607,3401.474)">
			<stop offset="0" stop-color="#53d8ff"/>
			<stop offset="1" stop-color="#3840f7"/>
		</linearGradient>
		<linearGradient id="g56" x2="1" gradientUnits="userSpaceOnUse" gradientTransform="matrix(-168.567,215.197,-141.318,-110.696,1501.456,3058.698)">
			<stop offset="0" stop-color="#2b3582"/>
			<stop offset="1" stop-color="#150e42"/>
		</linearGradient>
		<linearGradient id="g57" x2="1" gradientUnits="userSpaceOnUse" gradientTransform="matrix(573.717,-907.671,1004.776,635.095,844.157,3258.776)">
			<stop offset="0" stop-color="#cb236d"/>
			<stop offset="1" stop-color="#4c246d"/>
		</linearGradient>
		<linearGradient id="g58" x2="1" gradientUnits="userSpaceOnUse" gradientTransform="matrix(-218.515,278.962,-248.23,-194.442,1430.5,2943.466)">
			<stop offset="0" stop-color="#53d8ff"/>
			<stop offset="1" stop-color="#3840f7"/>
		</linearGradient>
		<linearGradient id="g59" x2="1" gradientUnits="userSpaceOnUse" gradientTransform="matrix(-167.078,-62.329,137.808,-369.407,1236.756,3066.318)">
			<stop offset="0" stop-color="#53d8ff"/>
			<stop offset="1" stop-color="#3840f7"/>
		</linearGradient>
	</defs>
	<style>
		.s0 { opacity: .3;fill: url(#g1) } 
		.s1 { fill: url(#g2) } 
		.s2 { opacity: .45;fill: #ffffff } 
		.s3 { fill: url(#g3) } 
		.s4 { opacity: .47;fill: #ffffff } 
		.s5 { fill: url(#g4) } 
		.s6 { fill: url(#g5) } 
		.s7 { opacity: .43;fill: #ffffff } 
		.s8 { fill: url(#g6) } 
		.s9 { fill: url(#g7) } 
		.s10 { fill: url(#g8) } 
		.s11 { fill: url(#g9) } 
		.s12 { fill: url(#g10) } 
		.s13 { opacity: .71;fill: url(#g11) } 
		.s14 { fill: url(#g12) } 
		.s15 { opacity: .53;fill: #ffffff } 
		.s16 { fill: url(#g13) } 
		.s17 { fill: url(#g14) } 
		.s18 { fill: url(#g15) } 
		.s19 { fill: #ffffff } 
		.s20 { fill: url(#g16) } 
		.s21 { fill: url(#g17) } 
		.s22 { fill: url(#g18) } 
		.s23 { fill: url(#g19) } 
		.s24 { fill: url(#g20) } 
		.s25 { fill: url(#g21) } 
		.s26 { fill: url(#g22) } 
		.s27 { fill: url(#g23) } 
		.s28 { fill: url(#g24) } 
		.s29 { fill: url(#g25) } 
		.s30 { fill: url(#g26) } 
		.s31 { fill: url(#g27) } 
		.s32 { fill: url(#g28) } 
		.s33 { fill: url(#g29) } 
		.s34 { fill: url(#g30) } 
		.s35 { fill: url(#g31) } 
		.s36 { fill: url(#g32) } 
		.s37 { fill: url(#g33) } 
		.s38 { fill: url(#g34) } 
		.s39 { fill: url(#g35) } 
		.s40 { fill: url(#g36) } 
		.s41 { fill: url(#g37) } 
		.s42 { fill: url(#g38) } 
		.s43 { fill: url(#g39) } 
		.s44 { fill: url(#g40) } 
		.s45 { fill: url(#g41) } 
		.s46 { fill: url(#g42) } 
		.s47 { fill: url(#g43) } 
		.s48 { fill: url(#g44) } 
		.s49 { fill: url(#g45) } 
		.s50 { fill: url(#g46) } 
		.s51 { fill: url(#g47) } 
		.s52 { fill: url(#g48) } 
		.s53 { fill: url(#g49) } 
		.s54 { fill: url(#g50) } 
		.s55 { fill: url(#g51) } 
		.s56 { fill: url(#g52) } 
		.s57 { fill: url(#g53) } 
		.s58 { fill: url(#g54) } 
		.s59 { fill: url(#g55) } 
		.s60 { fill: url(#g56) } 
		.s61 { fill: url(#g57) } 
		.s62 { fill: url(#g58) } 
		.s63 { fill: url(#g59) } 
	</style>
	<g id="_Artboards_">
	</g>
	<g id="Illustration">
		<g id="&lt;Group&gt;">
			<path id="&lt;Path&gt;" class="s0" d="m2903.2 2842.1c-56.4 59.3-109.7 97.5-151.8 127.8-495.1 355.2-1080.9 251.6-1205.5 226.4-183.8-37.4-539.2-109.6-796.2-411.7-388.7-457.2-328.2-1177.4-26.6-1652.8 55.1-87 346.5-569.7 938.6-647.1 358.4-46.8 776.1 47.6 1078.7 301.1 635 532 589.8 1606.8 162.8 2056.3z"/>
			<g id="&lt;Group&gt;">
				<path id="&lt;Path&gt;" class="s1" d="m1069.6 2378.5c0 0 109-211.8-15.3-408.1-115.4-182.1-414.5-601.1-403.3-846.6 0.5-10.9-20.2-6.1-26.9 6.3-72.8 132.5-225.8 462.7-146.2 773.1 102.5 400.2 591.7 475.3 591.7 475.3z"/>
				<path id="&lt;Path&gt;" class="s2" d="m610.7 1354.3c-14.9 44.5-22.2 91.1-24.9 137.6-2.5 46.5 0.5 93.3 8.9 139 4.1 22.9 9.9 45.4 16.7 67.6l5.5 16.5c1.9 5.5 4 10.9 6 16.3l3 8.2 3.4 8c2.3 5.3 4.5 10.7 6.8 16l7.4 15.7c1.3 2.6 2.5 5.3 3.8 7.9l4.1 7.7 8.1 15.3 8.9 15 4.4 7.5c1.5 2.5 3.1 4.9 4.7 7.3l9.4 14.7c6.5 9.7 13.2 19.3 19.8 28.9 26.8 38.3 54.6 76 83.3 112.9 14.3 18.5 28.9 36.8 43.7 55 14.6 18.2 29.5 36.4 44.4 54.5 14.9 18.1 29.8 36.1 44.6 54.4 14.7 18.3 29.4 36.7 43 55.9 13.7 19.2 26.7 39 37.7 60 5.3 10.5 10.2 21.3 14.2 32.5 3.8 11.2 6.8 22.7 8.7 34.4 0.2 0.9-0.5 1.8-1.4 1.9-0.9 0.2-1.7-0.4-1.9-1.3-2.3-11.4-5.7-22.5-9.9-33.3-4.3-10.8-9.4-21.3-15-31.4-11.4-20.3-24.7-39.5-38.8-58-28.4-37.1-59.1-72.5-89.4-108.3-61.2-71.1-120.1-144.6-173.8-221.8-6.7-9.7-13.4-19.3-20-29.1l-9.6-14.9c-1.6-2.5-3.2-5-4.8-7.5l-4.4-7.7-8.9-15.4-8.3-15.7-4.1-7.9c-1.3-2.6-2.5-5.4-3.8-8l-7.5-16.2c-19-43.4-32.6-89.1-40.4-135.8-3.7-23.4-6.1-46.9-7-70.5-0.9-23.7-0.2-47.3 1.8-70.8 2.1-23.5 5.8-46.8 10.8-69.8 5.1-23 11.4-45.7 20.4-67.4 0.1-0.1 0.2-0.2 0.3-0.1 0.1 0 0.1 0.1 0.1 0.2z"/>
			</g>
			<g id="&lt;Group&gt;">
				<path id="&lt;Path&gt;" class="s3" d="m493.9 522.1c-7.5-13.8 12-23.7 28.2-14.4 164.4 94.2 575.5 378.6 635.3 895.8 75 648.9 316.3 879.1 575.4 1016.2 0 0-320-58.4-575.7-291.7-627.5-572.8-529.6-1361.4-663.2-1605.9z"/>
				<path id="&lt;Path&gt;" class="s4" d="m660.9 717.5c22.4 24.3 42 50.5 60.5 77.4 4.6 6.8 9.4 13.5 13.8 20.4l13.1 20.7 6.6 10.4 6.2 10.6 12.4 21.1c32.2 57 59.8 116.5 84.3 177.2l17.7 45.8c5.4 15.5 10.5 31 15.7 46.5l7.9 23.3c2.3 7.8 4.5 15.7 6.8 23.6l13.7 47.2c1.2 3.9 2.2 7.8 3.2 11.8l2.9 12 5.8 23.8 5.8 23.9c2 7.9 4 15.9 5.5 23.9l9.5 48.2c3.2 16 6.5 32.1 9.4 47.9 23.6 127 66.9 249.9 120.4 367.5 6.6 14.8 13.7 29.3 20.6 44 7.2 14.4 14.3 29 21.8 43.3 14.9 28.7 30.5 57.1 46.6 85.2 16.1 28 32.9 55.7 50.4 82.9 8.7 13.7 17.6 27.1 26.7 40.5 9 13.3 18.4 26.7 27.8 39.4l0.1 0.2c3.9 5.1 2.8 12.4-2.3 16.3-5.1 3.8-12.4 2.8-16.2-2.3-20.2-26.4-38.7-53.3-56.7-80.8q-26.9-41.1-51.7-83.5c-16.5-28.3-32.2-57.1-47.3-86.2-7.6-14.5-14.8-29.2-22.1-43.9-7.1-14.7-14.3-29.5-21-44.4-6.9-14.9-13.3-30-19.9-45-6.3-15.1-12.7-30.2-18.5-45.5-12.1-30.5-23-61.5-33.2-92.7l-7.5-23.4c-2.5-7.8-4.6-15.8-7-23.6-4.8-15.7-8.8-31.6-13-47.5-8-31.9-15.4-63.9-21-96.2l-17.5-95.9c-1.4-8-3.2-15.8-5-23.7l-5.5-23.7-5.4-23.7-2.7-11.8c-0.8-4-1.8-7.9-2.9-11.8l-12.8-46.9c-2.2-7.8-4.2-15.6-6.5-23.4l-7.4-23.1c-4.9-15.4-9.7-30.9-14.8-46.3l-16.5-45.6c-22.8-60.7-48.8-120.2-79.4-177.3l-11.6-21.4-5.8-10.7-6.2-10.4-12.3-21c-4.1-6.9-8.7-13.6-13-20.5-4.4-6.8-8.7-13.7-13.4-20.3-4.6-6.6-9-13.5-13.9-19.9-9.5-13.1-19.2-26.2-29.7-38.3l-0.1-0.1c-1.1-1.3-1-3.3 0.3-4.4 1.3-1.1 3.2-1 4.3 0.2z"/>
			</g>
			<g id="&lt;Group&gt;">
				<g id="&lt;Group&gt;">
					<path id="&lt;Path&gt;" class="s5" d="m2393.7 2077.4c0 0-176.4-235.1-65.7-499.8 102.8-245.5 380.1-817.1 315.8-1113.5-2.9-13.2 23.2-11.6 34 2 115.9 146.3 370.4 516.4 337.8 910.5-42.1 508.3-621.9 700.8-621.9 700.8z"/>
					<path id="&lt;Path&gt;" class="s2" d="m2740.9 736c15.5 24.6 27.8 50.9 38.8 77.8 10.8 27 20.1 54.6 27.5 82.7 7.4 28.2 13.1 56.8 16.8 85.8 3.8 28.9 5.8 58 6.1 87.3 0.2 58.4-6.9 116.9-21.1 173.6l-5.8 21.2c-1 3.5-1.9 7-3 10.5l-3.3 10.5-6.8 20.8-7.6 20.6-3.8 10.3c-1.4 3.4-2.9 6.7-4.3 10.1l-8.6 20.1c-6 13.3-12.1 26.4-18.3 39.6-49.4 105-105.9 206.6-165.6 305.8-29.6 49.8-59.6 99.2-86.4 150.2-13.4 25.5-25.7 51.6-35.3 78.6-4.7 13.5-8.7 27.3-11.7 41.3-2.9 14-4.8 28.2-5.2 42.6-0.1 1.2-1 2.1-2.2 2-1.1 0-2-0.9-2-2-0.1-14.7 1.2-29.3 3.5-43.7 2.5-14.4 6.3-28.6 10.6-42.5 9-27.8 20.7-54.6 33.4-80.8 12.7-26.2 26.8-51.5 40.9-76.9 14.2-25.3 28.6-50.4 43-75.5 14.4-25.1 28.7-50.2 42.7-75.4 14.2-25.2 28.2-50.5 41.8-75.9 27.3-50.9 53.4-102.5 78.1-154.7 6-13 12.2-26.1 18-39.3l8.5-19.7c1.4-3.3 2.9-6.6 4.2-9.9l3.8-10 7.6-20.1 6.8-20.4 3.4-10.2c1.1-3.4 1.9-6.9 2.9-10.3l5.8-20.7c1.8-6.9 3.3-13.9 5-20.9l2.4-10.4 2-10.6c1.4-7 2.8-14 4-21.1l3.2-21.2c3.7-28.4 6.1-57 6.4-85.7 0.7-57.3-5.2-114.9-18-171-12.8-56-31.4-111.2-58.6-162.2-0.1-0.2-0.1-0.3 0.1-0.4 0.1-0.1 0.2 0 0.3 0.1z"/>
				</g>
				<g id="&lt;Group&gt;">
					<path id="&lt;Path&gt;" class="s6" d="m3087.3 733.6c-2.9-14.2-22.8-15.1-26.9-1.3-39.5 133.9-153.9 481.7-325.5 664.7-279.2 298.1-468.9 785.7-295.9 1041.8 0 0 959.4-163.6 648.3-1705.2z"/>
					<path id="&lt;Path&gt;" class="s7" d="m3060.8 924.9c-0.4 5-1 8.4-1.5 12.3l-1.7 11.5-3.7 23-8.3 45.6c-5.9 30.3-12.1 60.6-18.5 90.8-13.2 60.4-27.8 120.5-44 180.1-32 119.5-69.7 237.5-113.2 353.4-43.6 115.8-93.7 229.5-152.5 338.7-29.7 54.4-61.1 107.9-95.8 159.3-35.1 51.1-72.2 101-113.2 147.4-1.8 2.1-5 2.2-7 0.4-2-1.7-2.2-4.7-0.7-6.7 74.4-97.9 137.2-203.7 193-312.9 55.7-109.3 104.1-222.2 147.9-336.9 43.6-114.9 82.2-231.6 117.2-349.5 17.3-59 34-118.2 49.5-177.8 7.8-29.8 15.4-59.6 22.6-89.5l10.4-44.9 5.1-22.5 2.4-11.3 2.1-10.5 0.2-1.3c0.5-2.6 3.1-4.4 5.7-3.8 2.5 0.4 4.2 2.7 4 5.1z"/>
				</g>
			</g>
			<g id="&lt;Group&gt;">
				<path id="&lt;Path&gt;" class="s8" d="m1169.1 3144.8q-2.4 0-4.7-0.3c-22.3-2.6-38.3-22.7-35.7-45l255-2219.3c2.5-22.2 22.7-38.2 45-35.7 22.3 2.6 38.3 22.7 35.7 45l-255 2219.3c-2.4 20.7-20 36-40.3 36z"/>
				<path id="&lt;Path&gt;" class="s9" d="m2570.9 3144.8c-18.5 0-35.3-12.9-39.6-31.8l-497.6-2219.2c-4.9-21.9 8.9-43.7 30.8-48.6 21.9-4.8 43.6 8.9 48.5 30.8l497.6 2219.2c4.9 21.9-8.8 43.7-30.7 48.6q-4.5 1-9 1z"/>
				<path id="&lt;Path&gt;" class="s10" d="m1730.6 3144.8c-22.4 0-40.6-18.2-40.6-40.7v-1095.2c0-22.4 18.2-40.6 40.6-40.6 22.5 0 40.7 18.2 40.7 40.6v1095.2c0 22.5-18.2 40.7-40.7 40.7z"/>
				<path id="&lt;Path&gt;" class="s11" d="m917.6 636.6l142.8 1799.1c3 38.1 35.3 67.1 73.4 66.2l1491.9-36.4c43.5-1.1 76.1-40.2 69.2-83.2l-285.6-1793.9c-5.6-35.6-36.7-61.4-72.6-60.6l-1349.1 31.2c-41.3 1-73.3 36.4-70 77.6z"/>
				<path id="&lt;Path&gt;" class="s12" d="m1042.4 608.6l1251.1-29c36-0.8 67 25 72.6 60.6l269.5 1692.8c6.9 42.9-25.7 82.1-69.2 83.2l-1385.8 33.8c-38.1 0.9-70.3-28.2-73.4-66.2l-134.8-1697.7c-3.2-41.1 28.8-76.6 70-77.5z"/>
				<path id="&lt;Path&gt;" class="s13" d="m1137.3 707.3l1123.9-26.1c32.3-0.7 60.2 22.5 65.3 54.5l242.1 1520.8c6.1 38.6-23.1 73.8-62.2 74.7l-1245 30.4c-34.3 0.8-63.2-25.3-65.9-59.5l-121.1-1525.2c-3-36.9 25.8-68.8 62.9-69.6z"/>
				<g id="&lt;Group&gt;">
					<path id="&lt;Path&gt;" class="s14" d="m2000.1 2196.7c0 0-592 19.5-690.1-348.2-78.9-295.5 157.3 4.1 431.8 186.3 21.6 14.3 44.1-16.7 23.8-32.8-199.2-157.6-486.3-414.6-438.4-553.9 72.2-210.3 94.1-95.4 286.9 144.7 192.9 240.2 288.4 229.9 182.9 53.4-105.4-176.6-401.9-332.7-383.9-453.5 18.1-120.8 128.1-283.9 167-362.8 38.9-78.8 414.4 130.1 413.7 285.6-0.7 155.5-112.1 389.2-52.1 514.8 60 125.6 115.4-125.7 134-265.6 18.7-140 53.7-222.2 156.4-78.3 102.7 144 13.7 358.9-87.8 483-101.6 124.1-122.7 230.3-68.1 173.5 54.7-56.9 208.3-245.6 221.6-336.3 13.3-90.7 227.3 257.5-297.7 590.1z"/>
					<path id="&lt;Path&gt;" class="s15" d="m1974.6 2176.3c-1.7-0.7-2.9-2.4-3-4.4-23.1-453.3-265.8-1015.8-268.3-1021.5-1.1-2.6 0.1-5.7 2.7-6.8 2.7-1.2 5.8 0 6.9 2.7 2.5 5.6 245.9 569.9 269.1 1025 0.2 2.9-2.1 5.4-4.9 5.5-0.9 0.1-1.8-0.1-2.5-0.5z"/>
				</g>
			</g>
			<g id="&lt;Group&gt;">
				<path id="&lt;Path&gt;" class="s16" d="m3090.8 2229.5c17.2 18.4 42.7 34.3 60.6 44.3-26.8 33-62.9 66.1-110.8 98.5l-13.7 30.7-43.9-52.6c0 0 78.8-39.2 107.8-120.9z"/>
				<g id="&lt;Group&gt;">
					<path id="&lt;Path&gt;" class="s17" d="m2316.1 1551.1c0 0 114.5-221.1-80.9-330.6-195.4-109.6-269.9 17.1-432.3-89.9 0 0 85.5 413.8 513.2 420.5z"/>
					<path id="&lt;Path&gt;" class="s18" d="m2117.3 1159.8c9 0 59.6-12.1 72.3 15.9 12.8 28-11.1 45.8-77.5 47.6-66.4 1.8-77.1 46.8-24 81.7 53.1 35 20.1 73.1-41.6 48.7-61.8-24.4-62.5-2.1-38.8 35.7 23.6 37.7-31.5 70.6-84.7 25.7-48.8-41.3-137.8-149-163.3-289.1-2.7-14.9 12.6-26.6 26.3-20.2 46.1 21.2 147.2 54.1 331.3 54z"/>
					<path id="&lt;Path&gt;" class="s19" d="m2299.7 1484.1c5.1-11 8.7-22.8 11.5-34.7 2.7-11.9 4.2-24.2 4.7-36.5 0.5-12.3-0.2-24.7-2.1-36.9-1.9-12.2-5-24.4-9.4-36-8.7-23.4-22-45.1-38.4-64-16.4-18.9-35.5-35.4-56.1-49.5-3.9-2.7-9.4-1.7-12.1 2.2-2.7 4-1.7 9.4 2.2 12.1q0.2 0.2 0.5 0.3c20.3 12.3 39.3 26.8 55.8 43.8 16.6 16.8 30.4 36.6 40 58.3 4.9 10.9 8.5 22.3 11 34 2.6 11.7 4 23.7 4.3 35.7 0.2 12-0.6 24.2-2.6 36.1-2 11.9-4.8 23.8-9.3 35.1z"/>
					<g id="&lt;Group&gt;">
						<path id="&lt;Path&gt;" class="s20" d="m2562.7 1752.8c382.3 378 606.8 730.4 688.7 870.3 11 18.8-9.7 40.3-28.8 29.9-418-227.1-656.6-529.7-787.1-757.9 34.1-82.8 87.5-123 127.2-142.3z"/>
						<path id="&lt;Path&gt;" class="s21" d="m2323.9 1532.5c85.6 73.5 165.1 147.4 238.8 220.3-39.7 19.3-93.1 59.5-127.2 142.3-108.7-190.1-142.5-328.5-142.5-328.5 0.7-34.9 30.9-34.1 30.9-34.1z"/>
					</g>
				</g>
				<path id="&lt;Path&gt;" class="s22" d="m2855.9 3227.3c0-1 0-1.9 0.3-2.9 14.2-56.4 84.7-91.5 84.7-91.5l28 2.2c16.1 49.7 14 80.2 11.4 93.7 0 0.4-0.2 0.8-0.3 1.2-23 2-70.5 3.4-124.1-2.7z"/>
				<path id="&lt;Path&gt;" class="s23" d="m2980 3230c-1.2 4.5-4.6 8-8.8 8.9-32.8 6.9-85 1.4-106.9-1.5-4.8-0.6-8.4-5.1-8.4-10.1 53.6 6.1 101.1 4.7 124.1 2.7z"/>
				<path id="&lt;Path&gt;" class="s24" d="m2980.1 3093.5l-11.8 57c-0.9 4.2-4.1 7.3-8 7.7-4.7 0.4-11.5 0.7-18.3-0.3-6.1-0.9-10.4-7.1-9.3-13.8l8.2-50.6z"/>
				<path id="&lt;Path&gt;" class="s25" d="m2734.8 3229.4c30.9-0.9 46.8-4.5 55.1-7.9 0 3.1 0 6.2-0.1 9.4-0.1 3.5-2.7 6.3-5.8 6.2l-169.6-1.1c-5.4 0-8.6-6.3-6.2-11.2 22.2 1.8 78.8 5.9 126.6 4.6z"/>
				<path id="&lt;Path&gt;" class="s26" d="m2608.2 3224.8c0.2-0.5 0.4-0.9 0.6-1.3 15-20.9 53.2-62.6 128.5-80.7l36.2-1.1c0 0 16.1 28 16.4 79.8-8.3 3.4-24.2 7-55.1 7.9-47.8 1.3-104.4-2.8-126.6-4.6z"/>
				<path id="&lt;Path&gt;" class="s27" d="m2780.2 3086.9c-0.4 2.7-5.4 43.7-7.3 59.5-0.4 3.8-3.2 6.7-6.6 7.1-6.2 0.8-16.1 1.4-24.9-0.3-4.7-1-8.1-5.5-8.1-10.8v-64.3z"/>
				<path id="&lt;Path&gt;" class="s28" d="m2809.2 2339.4c0 0-87.2 331.4-85.6 748.4 0 7.7 5.3 14.2 12.8 15.8 10.9 2.3 27.1 5 40.4 4.7 7.1-0.2 13.1-5.5 14.3-12.5 12.2-71.8 82.4-475.7 122.3-541.3 0 0 26.3 359.8 17.9 546.4-0.2 4.7 3.2 8.7 7.8 9.2 7 0.9 18.2 1.5 32.5 0 5.4-0.6 9.8-4.7 10.5-10.1 8.8-60.7 58.9-421.9 56.7-682.1-0.1-14.7-38.8-78.5-38.8-78.5z"/>
				<path id="&lt;Path&gt;" class="s29" d="m2687.9 1938.4c14.2-17.8 26.6-36.8 36.9-56.4 14.5-27.3 25.7-57.3 29.7-88.2 97.9 17 247.3 36.4 310.4 44.3 20.8 2.6 39.7 12.9 53.4 28.7 54.1 62.6 172.9 234.1 33.1 407-17.9-10-43.4-25.9-60.6-44.3 15.4-43.6 16.7-99.4-15.7-167.7q-1.7 8.1-4.2 16.1c-44.6 141.5-47 259.3-46.9 286.5 0 3.7-2.2 7-5.7 8.4-58.8 23.5-172 9.5-210 3.8-6.9-1-11.6-7.5-10.7-14.5 18.7-135.1-77-357.4-102.3-413-1.8-4-4.3-7.7-7.4-10.7z"/>
				<path id="&lt;Path&gt;" class="s30" d="m2963.3 1708.1l11.3 115.8c0 0-65.1 19.7-112.5-13.8l33.3-105.2z"/>
				<g id="&lt;Group&gt;">
					<path id="&lt;Path&gt;" class="s31" d="m2887.7 1576.2c-1.6 1.4-66.2 128.3-66.2 128.3l73.3 35.3 79-111.1c0 0-59.9-77.3-86.1-52.5z"/>
					<path id="&lt;Path&gt;" class="s32" d="m2941.4 1631.8c1.4 3.4 1 7.1-0.8 10.2l-36.6 60.9q-0.8 1.4-2 2.5c-4.3 4-19.2 15.8-30.7-0.2-9.8-13.7-19-26.1-28.8-31.2-5.8-3-12.9-0.6-15.8 5.2-6 11.9-17.7 36.2-25 59.3-1.8 5.7 1.2 12 6.8 14.2 14.8 6 44.1 16.9 70.1 20.5 4.3 0.6 8.5-1.2 11.1-4.7 11.2-15.3 42.7-58.2 53.5-68.9 9.9-9.9 28.4-6.2 36.7-3.8 3.2 0.9 6.5 0.5 9.3-1.2 8.5-5.1 23.2-17.8 9.7-39.2-3.3-5.3-1.6-12.4 3.7-15.9 9.4-6.2 19.6-17.8 9.9-36.6-9.9-19.1-27.5-20.8-39.5-19.3-5.3 0.6-10.7-2.2-12.7-7.1-0.9-2.2-2.7-4.1-6-4.8-6.3-1.2-10.5-7-9.2-13.3 2.1-10.8 0.5-24.8-16.7-34.2-31.6-17.4-59.3 10.9-66.3 34.8-7.1 23.9 28.3 40.8 50.5 43.6 16.3 2 25.2 19.9 28.8 29.2z"/>
					<path id="&lt;Path&gt;" class="s33" d="m2929.4 1722c0 0 14.1-41.1 32.1-39.6 17.9 1.5 32.1 19.4 9.8 39.5-27.7 25.1-41.9 0.1-41.9 0.1z"/>
				</g>
				<path id="&lt;Path&gt;" class="s34" d="m3081 2051.2c23.7-64.9 15.1-143.2 15-144l-6.5 0.8c0.1 0.8 8.5 77.6-14.7 141z"/>
				<path id="&lt;Path&gt;" class="s35" d="m2916.6 2546.1c1.5 0 2.8-1 3.2-2.5 7.3-27.9 61.4-58.5 62-58.8 1.5-0.9 2.1-2.9 1.2-4.5-0.9-1.6-2.9-2.1-4.5-1.3-2.3 1.3-57.1 32.4-65 63-0.5 1.7 0.6 3.5 2.3 4q0.4 0.1 0.8 0.1z"/>
				<g id="&lt;Group&gt;">
					<path id="&lt;Path&gt;" class="s36" d="m2431.6 1839.7c113.8 49.5 211-4.7 280.7-34.7 92-39.6 143.3 5.4 143.3 5.4l-122.4 133c-151.5 81.8-268.8 23.3-337.2-34.6 6.8-30.2 21.5-53.1 35.6-69.1z"/>
					<path id="&lt;Path&gt;" class="s37" d="m2331.9 1682.3l29.2 80.1c29.7 44.8 34 61.5 70.5 77.3-14.1 16-28.8 38.9-35.6 69.1-41.5-51-55.2-120.1-55.2-120.1-52.4-93.8-8.9-106.4-8.9-106.4z"/>
				</g>
			</g>
			<g id="&lt;Group&gt;">
				<path id="&lt;Compound Path&gt;" fill-rule="evenodd" class="s38" d="m647.9 3098.1c-92.9-71.5-123.2-184.6-122.8-290 0.6-174.7 69.1-347.2 168.6-496.3 58.9-88.3 124.6-174.4 206.4-247.5 70.4-62.8 183.4-155.5 290.9-127.8 51.8 13.3 98.6 52.7 100.4 100.5 0.5 14.5-3.1 28.9-6.6 43.1-10.4 41.7-34.1 87.4-21.1 130.3 14.9 49.2 96.7 32.6 142.7 35.1 82.2 4.3 130.9 36.3 148.2 108 9.3 38.7 2.5 79-9.3 117.1-21.5 69.6-61.4 143.2-101.4 205.6-51.9 81.2-107.9 160.8-168 237.4-80.1 102.4-182.5 213.7-324 248.3-104.8 25.7-222.3-1.1-304-63.8zm743.3-603.9c37.6 7.5 78.4-27.5 91.2-78 12.7-50.6-7.4-97.6-45-105.1-37.6-7.5-78.4 27.4-91.2 77.9-12.7 50.6 7.4 97.7 45 105.2z"/>
				<path id="&lt;Compound Path&gt;" fill-rule="evenodd" class="s39" d="m663.8 3107c-92.1-70.8-122.1-182.9-121.7-287.4 0.6-173.1 68.5-344 167.1-491.7 58.4-87.5 123.5-172.9 204.5-245.2 69.7-62.3 181.7-154.2 288.2-126.7 51.4 13.2 97.8 52.2 99.5 99.6 0.5 14.4-3 28.6-6.5 42.7-10.3 41.3-33.8 86.6-20.9 129.1 14.8 48.7 95.8 32.3 141.4 34.7 81.4 4.3 129.7 36 146.8 107.1 9.2 38.3 2.5 78.3-9.1 116.1-21.4 68.9-60.9 141.8-100.5 203.7-51.5 80.4-107 159.2-166.5 235.2-79.4 101.4-180.9 211.8-321.1 246.1-103.8 25.4-220.3-1.1-301.2-63.3zm736.5-598.4c37.3 7.4 77.7-27.2 90.4-77.3 12.6-50.1-7.4-96.7-44.6-104.1-37.3-7.5-77.7 27.1-90.3 77.2-12.7 50.1 7.3 96.7 44.5 104.2z"/>
				<path id="&lt;Path&gt;" class="s40" d="m1048.6 2152.8c-41.2-23.1-53.5-71.4-27.4-107.9 26-36.5 80.6-47.3 121.8-24.2 41.2 23.2 53.5 71.5 27.5 108-26.1 36.5-80.6 47.3-121.9 24.1z"/>
				<path id="&lt;Path&gt;" class="s41" d="m1061.9 2130.9c-32.3-18.1-42-56-21.5-84.6 20.4-28.6 63.2-37.1 95.5-18.9 32.3 18.1 42 56 21.5 84.6-20.4 28.6-63.2 37.1-95.5 18.9z"/>
				<path id="&lt;Path&gt;" class="s42" d="m825.9 2335.5c-41.3-23.1-53.6-71.4-27.5-107.9 26-36.5 80.6-47.3 121.8-24.2 41.2 23.2 53.6 71.5 27.5 108-26.1 36.5-80.6 47.3-121.8 24.1z"/>
				<path id="&lt;Path&gt;" class="s43" d="m829.6 2330.3c-38-21.3-49.3-65.8-25.3-99.4 24-33.6 74.2-43.6 112.2-22.2 38 21.3 49.3 65.8 25.3 99.4-24 33.6-74.2 43.5-112.2 22.2z"/>
				<path id="&lt;Path&gt;" class="s44" d="m665 2608.5c-41.3-23.1-53.6-71.5-27.5-108 26-36.4 80.6-47.3 121.8-24.1 41.3 23.1 53.6 71.5 27.5 108-26 36.4-80.6 47.2-121.8 24.1z"/>
				<path id="&lt;Path&gt;" class="s45" d="m671.8 2598.2c-35.2-19.8-45.7-61.1-23.5-92.3 22.3-31.2 69-40.5 104.2-20.7 35.3 19.8 45.8 61.1 23.5 92.3-22.3 31.2-68.9 40.5-104.2 20.7z"/>
				<path id="&lt;Path&gt;" class="s46" d="m600.3 2845.6c-41.3-23.1-53.6-71.5-27.5-107.9 26-36.5 80.6-47.3 121.8-24.2 41.2 23.1 53.6 71.5 27.5 108-26.1 36.4-80.6 47.3-121.8 24.1z"/>
				<path id="&lt;Path&gt;" class="s47" d="m605.9 2832.9c-34.2-19.1-44.4-59.2-22.8-89.4 21.6-30.3 66.8-39.2 101-20 34.2 19.1 44.4 59.2 22.8 89.4-21.6 30.2-66.8 39.2-101 20z"/>
				<path id="&lt;Path&gt;" class="s48" d="m669.8 3069.7c-41.2-23.1-53.5-71.5-27.5-107.9 26.1-36.5 80.6-47.3 121.9-24.2 41.2 23.2 53.5 71.5 27.5 108-26.1 36.5-80.6 47.3-121.9 24.1z"/>
				<path id="&lt;Path&gt;" class="s49" d="m671.2 3063.1c-38-21.3-49.3-65.8-25.3-99.3 24-33.6 74.2-43.6 112.1-22.3 38 21.3 49.3 65.8 25.3 99.4-23.9 33.6-74.2 43.5-112.1 22.2z"/>
				<path id="&lt;Path&gt;" class="s50" d="m900.2 3125c-41.3-23.1-53.6-71.4-27.5-107.9 26-36.5 80.6-47.3 121.8-24.2 41.3 23.2 53.6 71.5 27.5 108-26 36.5-80.6 47.3-121.8 24.1z"/>
				<path id="&lt;Path&gt;" class="s51" d="m903.3 3118c-37.3-20.9-48.5-64.7-24.9-97.7 23.6-33 73-42.8 110.3-21.9 37.3 21 48.5 64.7 24.9 97.8-23.6 33-73 42.8-110.3 21.8z"/>
				<path id="&lt;Path&gt;" class="s52" d="m1292.3 2320.8l-105.1-89.3c-17.2-14.6-44.5-14.1-60.9 1.1l-24.5 22.6c-19.4 17.9-14.7 47.1 9.5 59.5l129.6 66.7c16.8 8.6 38 6.3 51.8-5.8 17.4-15 17.2-39.9-0.4-54.8z"/>
				<path id="&lt;Path&gt;" class="s53" d="m1224.6 2410l-144-48.4c-20.8-7-44.2 0.4-55.3 17.4l-28 43.3c-16.9 26.2 3.7 59 37.8 60l172.1 5.2c19.1 0.6 36.5-9.5 43.5-25.3 9.3-20.7-2.5-44.2-26.1-52.2z"/>
				<path id="&lt;Path&gt;" class="s54" d="m1248.6 2550.3c-6.4-9.8-15.8-17.9-29.9-16-72.8 10.2-145.9 18.6-218.5 29.5-9.8 1.5-21 2.3-30.1 5.7 1.1 39.5-2.2 80.3 1.7 119.7 0.2 19.3 24.6 30.5 42.4 19.5 39.2-21.2 75.6-46.1 113.1-69.5 40.2-24.9 80.6-49.5 120.9-74.2 7.5-4.6 4.1-9 0.4-14.7z"/>
				<path id="&lt;Path&gt;" class="s55" d="m1274.5 2598.8c-43.4 36.8-165.3 132.7-226.5 180.6-17.8 14-15.4 39.3 5 50.4l102.6 56.3c17.4 9.6 40.3 4.2 50-11.7l142.1-231.2c10.1-16.4 1.9-37-17.6-44.2l-17.3-6.4c-13.1-4.9-28.1-2.4-38.3 6.2z"/>
			</g>
			<g id="&lt;Group&gt;">
				<g id="&lt;Group&gt;">
					<path id="&lt;Path&gt;" class="s56" d="m2277.5 2918.3c29.8 9.9 52.5 29.5 67.4 57.1 3.9 7.2 7.2 14.8 8.8 22.8 1 5.2 1.4 10.5 1.4 15.8 0 66.5-53.7 111.9-111.3 133.8-76.5 29.2-153 20.3-232.3 17.6-81.2-2.8-162.5-5.5-243.7-9-70.7-3-141.4-6.3-212-10.9-40.9-2.5-81.8-5.1-122.7-8-39.1-2.8-82-1.7-120.2-10.5 17.3-34.2 21.3-85.8 24.9-124.1 2.8-28.7 3.9-57.5 5-86.3 0.5-13.4-4.9-64.5 6-71.4 3.7-2.4 9.4-2.9 15.7-2.6 11.6 0.5 25.3 3.9 33 4.5q30.3 2.4 60.5 5.3c40.2 3.8 80.4 8.2 120.6 13 158.3 18.7 320.7 34.9 472.5 85 6 2.1 79.7 23 79.4 21.3-3.2-18 12.7-33.7 28.8-42.6 35.6-19.7 79.6-23.7 118.2-10.8z"/>
					<path id="&lt;Path&gt;" class="s57" d="m2351.6 3049.7c-5.4 13.4-11.6 30.5-23.9 39.1 1.8-2.3 2.6-5.2 3.2-8.1 5-22.4 4.3-47.4-1-69.7-7.3-31.6-28.1-51.5-55.2-66.8-16.4-9.3-34.7-16.1-53.5-16.7-18.9-0.6-38.4 5.7-51.4 19.3-10.1 10.5-17.4 32.4-5 43.7 11.1 10.2 38.6 14.6 50.1 2.3 1.4-1.4 3.3-3.2 5.2-2.5 1.3 3.1-0.3 6.7-2.2 9.4-6.4 9-16.6 14.8-27.4 17.4-15.7 3.8-34.1 4.5-46.6-6.7-9.9-9.1-15-21.8-14.4-35.2 1.9-39.4 36.3-65 73.2-69.2 23.8-2.6 47.8 1.8 70.8 8.2 37.6 10.6 72.2 31.4 79.8 72.1q1.3 6.9 2.6 13.8c3.2 17.1 2.2 33.5-4.3 49.6z"/>
					<path id="&lt;Path&gt;" class="s58" d="m1821.4 2948.6c-3-17.9-8.9-36.5-17.2-54.5-75.1-11.6-150.8-19.9-225.6-28.7q-12.1-1.5-24.2-2.9c2.6 9.3 5.4 18.7 8.5 28.3 22.2 73.3 0.2 153.9-13.3 229.4-1.7 8.5-3.8 16.7-6.3 24.5q6.2 0.4 12.5 0.8c70.6 4.6 141.3 7.9 212 10.9q16.2 0.7 32.3 1.3c22.6-66.5 31.2-137.9 21.3-209.1z"/>
				</g>
				<g id="&lt;Group&gt;">
					<path id="&lt;Path&gt;" class="s59" d="m1358.3 2987.4c-8 79.3-25.5 142.4-39.1 141.1-13.5-1.4-18-66.8-10-146 8-79.3 25.5-142.4 39.1-141.1 13.6 1.4 18 66.8 10 146z"/>
					<g id="&lt;Group&gt;">
						<path id="&lt;Path&gt;" class="s60" d="m1263.2 2977.7c-2.9 27.9-9.6 50.2-15.1 49.6-5.5-0.6-7.7-23.7-4.8-51.6 2.8-28 9.6-50.2 15.1-49.6 5.5 0.5 7.6 23.6 4.8 51.6z"/>
						<path id="&lt;Path&gt;" class="s61" d="m1175.8 2914.3c-9.5 1.2-18.6 3.2-26.7 5.9-34.7 11.3-69.8 30-86.1 62.6-7.8 15.6-10.6 33-14.8 49.8-8 31.3-8.8 62.8-40.4 76.2-37.4 15.8-76.7 28.2-114.9 42.2-21.6 7.9-35.7 38.7-30.4 61.1 7.9 33.7 43.7 27.6 69.9 27.4 61.7-0.4 123.4-1.2 184.9 2.4 15.1 0.9 30.3 1.8 45.4 0.9 20.4-1.2 40.4-5.8 60.6-8.2 49.9-6 100.3 1 150.6 2.9 22.9 0.9 47.4 0.3 66.3-12.8 5.8-3.9 11.2-10.9 8.5-17.3-1.2-2.9-3.7-4.9-6.2-6.6-46.7-32.7-109.3-26.6-164.6-40.3-13.6-3.4-27.2-8.2-38-17.2-18.8-15.6-25.9-40.9-32-64.5-2.7-10.7-5.5-21.8-3.7-32.7 6.8-42 53-19 74.8-41.5 15.3-15.7 10.5-51.5-4.6-66-23.6-22.7-64.2-28.6-98.6-24.3z"/>
						<path id="&lt;Path&gt;" class="s62" d="m1326.2 2933.1l-65.9-6.6c9.5 32.6 4.6 66.4-10.2 101l63.1 6.4q24.6-48.5 13-100.8z"/>
					</g>
					<path id="&lt;Path&gt;" class="s63" d="m1258.4 2926.1c9.5 32.2 7.3 65.9-10.3 101.2l21.7 2.2c13.8-32.6 17.2-66.4 10.2-101.2z"/>
				</g>
			</g>
		</g>
	</g>
</svg>