<svg width="553" height="550" viewBox="0 0 553 550" fill="none" xmlns="http://www.w3.org/2000/svg">
<ellipse cx="276.342" cy="274.593" rx="276.342" ry="274.593" fill="#1F0822"/>
<path d="M455.144 146.569C473.242 155.116 481.386 175.526 464.193 197.244C430.523 239.774 352.89 365.555 309.311 414.585C299.781 425.307 285.324 439.456 276.878 441.567C246.255 413.35 264.099 341.055 278.544 315.951C294.471 284.098 353.953 203.743 381.703 167.547C397.786 146.569 429.083 134.263 455.144 146.569Z" fill="url(#paint0_linear_2_16)"/>
<path d="M97.2231 147.098C79.125 155.645 70.981 176.055 88.1741 197.773C121.844 240.303 199.477 366.084 243.056 415.114C252.586 425.836 267.043 439.985 275.489 442.096C306.112 413.879 292.083 344.553 273.823 316.48C257.896 284.627 198.414 204.272 170.664 168.076C154.581 147.098 123.284 134.792 97.2231 147.098Z" fill="url(#paint1_linear_2_16)" stroke="white" stroke-opacity="0.36" stroke-width="1.51907"/>
<g filter="url(#filter0_d_2_16)">
<circle cx="277.216" cy="156.535" r="49.8464" fill="url(#paint2_linear_2_16)"/>
<circle cx="277.216" cy="156.535" r="48.6596" stroke="white" stroke-opacity="0.36" stroke-width="2.37364"/>
</g>
<defs>
<filter id="filter0_d_2_16" x="214.552" y="106.689" width="125.328" height="136.247" filterUnits="userSpaceOnUse" color-interpolation-filters="sRGB">
<feFlood flood-opacity="0" result="BackgroundImageFix"/>
<feColorMatrix in="SourceAlpha" type="matrix" values="0 0 0 0 0 0 0 0 0 0 0 0 0 0 0 0 0 0 127 0" result="hardAlpha"/>
<feMorphology radius="21.3628" operator="erode" in="SourceAlpha" result="effect1_dropShadow_2_16"/>
<feOffset dy="23.7364"/>
<feGaussianBlur stdDeviation="17.0902"/>
<feComposite in2="hardAlpha" operator="out"/>
<feColorMatrix type="matrix" values="0 0 0 0 0.925 0 0 0 0 0.396979 0 0 0 0 0.889799 0 0 0 1 0"/>
<feBlend mode="normal" in2="BackgroundImageFix" result="effect1_dropShadow_2_16"/>
<feBlend mode="normal" in="SourceGraphic" in2="effect1_dropShadow_2_16" result="shape"/>
</filter>
<linearGradient id="paint0_linear_2_16" x1="317.198" y1="325.476" x2="-100.545" y2="501.687" gradientUnits="userSpaceOnUse">
<stop stop-color="white"/>
<stop offset="0.27" stop-color="#606060"/>
<stop offset="1" stop-color="#999999"/>
</linearGradient>
<linearGradient id="paint1_linear_2_16" x1="185.936" y1="142.198" x2="271.626" y2="456.115" gradientUnits="userSpaceOnUse">
<stop stop-color="#DA48D0"/>
<stop offset="1" stop-color="#74266F"/>
</linearGradient>
<linearGradient id="paint2_linear_2_16" x1="277.216" y1="106.689" x2="298.301" y2="214.702" gradientUnits="userSpaceOnUse">
<stop stop-color="#DA48D0"/>
<stop offset="1" stop-color="#74266F"/>
</linearGradient>
</defs>
</svg>
